
<?xml version="1.0" standalone="no"?>
<!DOCTYPE svg PUBLIC "-//W3C//DTD SVG 1.1//EN" "http://www.w3.org/Graphics/SVG/1.1/DTD/svg11.dtd" >
<!--
2013-9-30: Created.
-->
<svg>
<metadata>
Created by iconfont
</metadata>
<defs>

<font id="iconfont" horiz-adv-x="1024" >
  <font-face
    font-family="iconfont"
    font-weight="500"
    font-stretch="normal"
    units-per-em="1024"
    ascent="896"
    descent="-128"
  />
    <missing-glyph />
    
    <glyph glyph-name="more" unicode="&#58886;" d="M109.3993 511.067c49.7953 0 90.1676-40.3716 90.1676-90.1649s-40.3723-90.1659-90.1676-90.1659c-49.7973 0-90.1696 40.3726-90.1696 90.1659S59.603 511.067 109.3993 511.067zM515.1578 511.067c49.7953 0 90.1686-40.3716 90.1686-90.1649s-40.3723-90.1659-90.1686-90.1659c-49.7963 0-90.1696 40.3726-90.1696 90.1659S465.3616 511.067 515.1578 511.067zM920.9144 511.067c49.7963 0 90.1696-40.3716 90.1696-90.1649s-40.3723-90.1659-90.1696-90.1659c-49.7943 0-90.1686 40.3726-90.1686 90.1659S871.1201 511.067 920.9144 511.067z"  horiz-adv-x="1000" />

    
    <glyph glyph-name="plus" unicode="&#58916;" d="M459.2605 850.0022c36.3189-0.027 72.6357 0.026 108.9796-0.027 0.026-127.2377 0-254.4475 0-381.6862 127.2399-0.0779 254.5119 0.029 381.7548-0.052 0-36.3174 0-72.6298 0-108.9471-127.2429-0.0799-254.4849 0-381.7288-0.052-0.0809-127.2407 0.025-254.4745-0.055-381.7162-36.3159 0-72.6327 0-108.9516 0-0.0809 127.2407 0 254.4745-0.027 381.7162-127.2409 0.0779-254.4839-0.028-381.7268 0.052-0.027 36.3174-0.027 72.6298-0.027 108.9471 127.2699 0.0809 254.5129-0.026 381.7538 0.052C459.2335 595.5277 459.2075 722.7655 459.2605 850.0022z"  horiz-adv-x="1000" />

    
    <glyph glyph-name="minus" unicode="&#58917;" d="M77.4786 468.236c290.8567 0.053 581.6855 0.053 872.5162 0 0-36.3174 0-72.6288 0-108.9461-290.8557-0.052-581.6865-0.052-872.5162 0C77.4786 395.6073 77.4786 431.9186 77.4786 468.236z"  horiz-adv-x="1000" />

    
    <glyph glyph-name="money" unicode="&#58907;" d="M436.992 136.992l-192.992 0q-27.008 2.016-41.504 22.496t-17.504 45.504q3.008 24.992 17.504 40.992t41.504 18.016l192.992 0 0 63.008-192.992 0.992q-27.008 2.016-41.504 19.008t-17.504 43.008q3.008 24.992 17.504 40.992t41.504 18.016l144 0-134.016 236q-10.016 12-19.008 30.496t-8 40.512q4.992 28 20 45.504t56 22.496q24-2.016 43.008-16.512t31.008-31.488l152-278.016 167.008 280q12 16.992 31.008 30.016t43.008 16q15.008-0.992 27.488-4t22.016-10.016 16-20 9.504-34.016q0-28.992-20-55.008l-155.008-252 147.008 0q26.016-2.016 40.992-18.016t16.992-40.992q-2.016-26.016-17.504-44t-41.504-20l-191.008-0.992 0-60.992 192 0q26.016-2.016 40.992-20t16.992-43.008q-2.016-26.016-16.992-43.488t-40.992-19.488l-192 0.992 0-106.016q-4-84.992-92.992-84.992-44 0-68.512 20.992t-26.496 64l0 104z"  horiz-adv-x="1024" />

    
    <glyph glyph-name="gouwuche" unicode="&#58944;" d="M956.796928 593.728512c-5.210112 8.62208-15.937536 18.936832-37.443584 18.936832L320.672768 612.665344l-29.052928 62.746624c-1.723392 4.328448-4.094976 8.539136-7.560192 13.19936-2.072576 2.702336-4.31104 5.20704-7.97696 8.506368-2.386944 2.072576-4.907008 3.979264-7.561216 5.605376l-1.458176 0.82944c-2.686976 1.558528-5.472256 2.902016-8.323072 3.96288l-1.907712 0.631808c-2.801664 0.945152-5.654528 1.757184-8.572928 2.238464l-4.096 0.463872c-1.823744 0.264192-3.631104 0.447488-5.505024 0.447488L121.224192 711.297024c-31.491072 0-57.109504-25.603072-57.109504-57.091072 0-31.507456 25.618432-57.142272 57.109504-57.142272l80.820224 0 32.65024-70.573056c7.97696-23.348224 19.18464-43.478016 19.252224-43.478016l80.67072-181.128192c0.663552-1.456128 1.44384-2.799616 2.57024-4.608l15.056896-32.02048c5.787648-18.902016 20.810752-33.19808 39.232512-38.488064l-0.183296-2.453504 391.950336 0 17.959936 0.316416-0.232448 2.253824c18.238464 5.371904 33.08032 19.634176 38.851584 38.372352l97.984512 217.076736C944.508928 495.082496 976.976896 560.299008 956.796928 593.728512zM908.690432 496.83968l-92.978176-206.431232-2.5856 0.663552-4.160512-15.435776c-2.920448-10.898432-12.802048-18.507776-25.071616-18.507776-0.067584 0-0.115712 0.033792-0.18432 0.033792l-18.52416 0.53248 0.083968-0.864256L424.841216 256.830464l-17.544192 0.2304c-11.308032 0-21.241856 7.663616-24.193024 18.576384l-4.228096 15.420416-2.520064-0.648192-93.50656 207.460352c-0.116736 0.19968-10.612736 19.03616-17.626112 39.845888l-42.417152 91.881472L121.224192 629.597184c-13.565952 0-24.576 11.060224-24.576 24.608768 0 13.546496 11.010048 24.557568 24.576 24.557568l118.561792-0.13312 2.983936-0.297984c1.260544-0.233472 2.454528-0.596992 4.477952-1.227776 1.243136-0.463872 2.42176-1.077248 4.211712-2.072576 1.143808-0.71168 2.188288-1.542144 3.780608-2.85184 1.04448-0.96256 2.006016-2.057216 3.183616-3.549184 1.293312-1.772544 2.286592-3.514368 3.332096-6.084608l38.13888-82.397184 619.457536 0c7.661568 0 9.069568-2.336768 9.585664-3.217408C935.936 565.372928 924.274688 526.521344 908.690432 496.83968zM469.779456 191.496192c-44.02688 0-79.878144-35.852288-79.878144-79.89248 0-44.04224 35.851264-79.874048 79.878144-79.874048 44.058624 0 79.891456 35.831808 79.891456 79.874048C549.670912 155.643904 513.83808 191.496192 469.779456 191.496192zM469.779456 60.57984c-28.123136 0-51.007488 22.884352-51.007488 51.023872 0 28.141568 22.884352 51.040256 51.007488 51.040256 28.156928 0 51.05664-22.897664 51.05664-51.040256C520.836096 83.464192 497.936384 60.57984 469.779456 60.57984zM746.74688 191.496192c-44.0576 0-79.890432-35.852288-79.890432-79.89248 0-44.04224 35.831808-79.874048 79.890432-79.874048 44.04224 0 79.878144 35.831808 79.878144 79.874048C826.624 155.643904 790.788096 191.496192 746.74688 191.496192zM746.74688 60.57984c-28.153856 0-51.03616 22.884352-51.03616 51.023872 0 28.141568 22.882304 51.040256 51.03616 51.040256 28.141568 0 51.040256-22.897664 51.040256-51.040256C797.786112 83.464192 774.888448 60.57984 746.74688 60.57984z"  horiz-adv-x="1024" />

    
    <glyph glyph-name="Logistics" unicode="&#58928;" d="M629.243904 24.92416l-268.10368 0 0 20.48c0 40.89344-33.26976 74.162176-74.1632 74.162176-40.89344 0-74.1632-33.268736-74.1632-74.162176l0-20.48L39.353344 24.92416 39.353344 633.742336l589.89056 0L629.243904 24.92416zM400.275456 65.88416l188.008448 0L588.283904 592.782336 80.313344 592.782336l0-526.898176 93.365248 0c9.691136 53.73952 56.809472 94.642176 113.298432 94.642176C343.465984 160.525312 390.58432 119.62368 400.275456 65.88416zM988.88704 24.92416 853.284864 24.92416l0 20.48c0 40.89344-33.268736 74.162176-74.1632 74.162176s-74.1632-33.268736-74.1632-74.162176l0-20.48-116.67456 0L588.283904 501.241856l209.7664 0c14.93504 0 32.405504-10.467328 56.644608-33.938432 17.619968-17.061888 38.498304-40.96512 58.785792-67.308544 19.833856-25.751552 38.037504-52.406272 51.25632-75.052032 21.64736-37.086208 24.15104-53.065728 24.15104-61.85984L988.888064 24.92416zM892.420096 65.88416l55.506944 0L947.92704 263.083008c-0.001024 0.086016-0.34304 9.709568-17.739776 39.789568-11.715584 20.257792-28.107776 44.480512-46.155776 68.207616-18.285568 24.039424-37.270528 46.229504-53.45792 62.48448-21.858304 21.94944-31.587328 26.094592-33.37216 26.717184L629.243904 460.281856l0-394.397696 36.579328 0c9.691136 53.73952 56.809472 94.642176 113.299456 94.642176S882.729984 119.62368 892.420096 65.88416zM988.88704 233.1392 701.853696 233.1392l0 192.38912 191.224832 0 6.146048-7.54176c22.276096-27.33056 44.27776-58.103808 60.365824-84.429824 26.26048-42.969088 29.29664-60.8 29.29664-70.473728L988.88704 233.1392zM742.813696 274.0992l201.86624 0c-3.033088 7.66464-8.897536 19.899392-20.231168 38.414336-13.688832 22.362112-31.970304 48.212992-50.907136 72.055808L742.813696 384.569344 742.813696 274.0992zM779.121664-69.71904c-63.478784 0-115.1232 51.644416-115.1232 115.1232 0 63.47776 51.644416 115.122176 115.1232 115.122176s115.1232-51.644416 115.1232-115.122176C894.244864-18.075648 842.600448-69.71904 779.121664-69.71904zM779.121664 119.565312c-40.894464 0-74.1632-33.268736-74.1632-74.162176 0-40.894464 33.268736-74.1632 74.1632-74.1632s74.1632 33.268736 74.1632 74.1632C853.284864 86.296576 820.015104 119.565312 779.121664 119.565312zM286.976-69.71904c-63.478784 0-115.1232 51.644416-115.1232 115.1232 0 63.47776 51.644416 115.122176 115.1232 115.122176 63.479808 0 115.1232-51.644416 115.1232-115.122176C402.100224-18.075648 350.455808-69.71904 286.976-69.71904zM286.976 119.565312c-40.89344 0-74.1632-33.268736-74.1632-74.162176 0-40.894464 33.26976-74.1632 74.1632-74.1632 40.894464 0 74.1632 33.268736 74.1632 74.1632C361.140224 86.296576 327.870464 119.565312 286.976 119.565312z"  horiz-adv-x="1024" />

    
    <glyph glyph-name="more1" unicode="&#58904;" d="M224 288c-52.928 0-96 43.072-96 96s43.072 96 96 96c52.928 0 96-43.072 96-96S276.928 288 224 288zM512 288c-52.928 0-96 43.072-96 96s43.072 96 96 96c52.928 0 96-43.072 96-96S564.928 288 512 288zM800 288c-52.928 0-96 43.072-96 96s43.072 96 96 96c52.928 0 96-43.072 96-96S852.928 288 800 288z"  horiz-adv-x="1024" />

    
    <glyph glyph-name="close01" unicode="&#58915;" d="M835.3792 659.5584 774.7584 723.1488 512 447.5904 512 447.5904 512 447.5904 512 447.5904 249.2416 723.1488 188.6208 659.5584 451.3792 384 188.6208 108.4416 249.2416 44.8512 512 320.4096 512 320.4096 512 320.4096 512 320.4096 774.7584 44.8512 835.3792 108.4416 572.6208 384Z"  horiz-adv-x="1024" />

    
    <glyph glyph-name="location" unicode="&#58929;" d="M23.965957 895.273759 23.965957-127.273759 23.965957 895.273759ZM47.205674 895.273759 47.205674-127.273759 47.205674 895.273759ZM70.44539 895.273759 70.44539-127.273759 70.44539 895.273759ZM93.685106 895.273759 93.685106-127.273759 93.685106 895.273759ZM116.924823 895.273759 116.924823-127.273759 116.924823 895.273759ZM140.164539 895.273759 140.164539-127.273759 140.164539 895.273759ZM163.404255 895.273759 163.404255-127.273759 163.404255 895.273759ZM186.643972 895.273759 186.643972-127.273759 186.643972 895.273759ZM209.883688 895.273759 209.883688-127.273759 209.883688 895.273759ZM233.123404 895.273759 233.123404-127.273759 233.123404 895.273759ZM256.363121 895.273759 256.363121-127.273759 256.363121 895.273759ZM279.602837 895.273759 279.602837-127.273759 279.602837 895.273759ZM302.842553 895.273759 302.842553-127.273759 302.842553 895.273759ZM326.08227 895.273759 326.08227-127.273759 326.08227 895.273759ZM349.321986 895.273759 349.321986-127.273759 349.321986 895.273759ZM372.561702 895.273759 372.561702-127.273759 372.561702 895.273759ZM395.801418 895.273759 395.801418-127.273759 395.801418 895.273759ZM419.041135 895.273759 419.041135-127.273759 419.041135 895.273759ZM442.280851 895.273759 442.280851-127.273759 442.280851 895.273759ZM465.520567 895.273759 465.520567-127.273759 465.520567 895.273759ZM488.760284 895.273759 488.760284-127.273759 488.760284 895.273759ZM512 895.273759 512-127.273759 512 895.273759ZM535.239716 895.273759 535.239716-127.273759 535.239716 895.273759ZM558.479433 895.273759 558.479433-127.273759 558.479433 895.273759ZM581.719149 895.273759 581.719149-127.273759 581.719149 895.273759ZM604.958865 895.273759 604.958865-127.273759 604.958865 895.273759ZM628.198582 895.273759 628.198582-127.273759 628.198582 895.273759ZM651.438298 895.273759 651.438298-127.273759 651.438298 895.273759ZM674.678014 895.273759 674.678014-127.273759 674.678014 895.273759ZM697.91773 895.273759 697.91773-127.273759 697.91773 895.273759ZM721.157447 895.273759 721.157447-127.273759 721.157447 895.273759ZM744.397163 895.273759 744.397163-127.273759 744.397163 895.273759ZM767.636879 895.273759 767.636879-127.273759 767.636879 895.273759ZM790.876596 895.273759 790.876596-127.273759 790.876596 895.273759ZM814.116312 895.273759 814.116312-127.273759 814.116312 895.273759ZM837.356028 895.273759 837.356028-127.273759 837.356028 895.273759ZM860.595745 895.273759 860.595745-127.273759 860.595745 895.273759ZM883.835461 895.273759 883.835461-127.273759 883.835461 895.273759ZM907.075177 895.273759 907.075177-127.273759 907.075177 895.273759ZM930.314894 895.273759 930.314894-127.273759 930.314894 895.273759ZM953.55461 895.273759 953.55461-127.273759 953.55461 895.273759ZM976.794326 895.273759 976.794326-127.273759 976.794326 895.273759ZM1000.034043 895.273759 1000.034043-127.273759 1000.034043 895.273759ZM0.726241 872.034043 1023.273759 872.034043 0.726241 872.034043ZM0.726241 848.794326 1023.273759 848.794326 0.726241 848.794326ZM0.726241 825.55461 1023.273759 825.55461 0.726241 825.55461ZM0.726241 802.314894 1023.273759 802.314894 0.726241 802.314894ZM0.726241 779.075177 1023.273759 779.075177 0.726241 779.075177ZM0.726241 755.835461 1023.273759 755.835461 0.726241 755.835461ZM0.726241 732.595745 1023.273759 732.595745 0.726241 732.595745ZM0.726241 709.356028 1023.273759 709.356028 0.726241 709.356028ZM0.726241 686.116312 1023.273759 686.116312 0.726241 686.116312ZM0.726241 662.876596 1023.273759 662.876596 0.726241 662.876596ZM0.726241 639.636879 1023.273759 639.636879 0.726241 639.636879ZM0.726241 616.397163 1023.273759 616.397163 0.726241 616.397163ZM0.726241 593.157447 1023.273759 593.157447 0.726241 593.157447ZM0.726241 569.91773 1023.273759 569.91773 0.726241 569.91773ZM0.726241 546.678014 1023.273759 546.678014 0.726241 546.678014ZM0.726241 523.438298 1023.273759 523.438298 0.726241 523.438298ZM0.726241 500.198582 1023.273759 500.198582 0.726241 500.198582ZM0.726241 476.958865 1023.273759 476.958865 0.726241 476.958865ZM0.726241 453.719149 1023.273759 453.719149 0.726241 453.719149ZM0.726241 430.479433 1023.273759 430.479433 0.726241 430.479433ZM0.726241 407.239716 1023.273759 407.239716 0.726241 407.239716ZM0.726241 384 1023.273759 384 0.726241 384ZM0.726241 360.760284 1023.273759 360.760284 0.726241 360.760284ZM0.726241 337.520567 1023.273759 337.520567 0.726241 337.520567ZM0.726241 314.280851 1023.273759 314.280851 0.726241 314.280851ZM0.726241 291.041135 1023.273759 291.041135 0.726241 291.041135ZM0.726241 267.801418 1023.273759 267.801418 0.726241 267.801418ZM0.726241 244.561702 1023.273759 244.561702 0.726241 244.561702ZM0.726241 221.321986 1023.273759 221.321986 0.726241 221.321986ZM0.726241 198.08227 1023.273759 198.08227 0.726241 198.08227ZM0.726241 174.842553 1023.273759 174.842553 0.726241 174.842553ZM0.726241 151.602837 1023.273759 151.602837 0.726241 151.602837ZM0.726241 128.363121 1023.273759 128.363121 0.726241 128.363121ZM0.726241 105.123404 1023.273759 105.123404 0.726241 105.123404ZM0.726241 81.883688 1023.273759 81.883688 0.726241 81.883688ZM0.726241 58.643972 1023.273759 58.643972 0.726241 58.643972ZM0.726241 35.404255 1023.273759 35.404255 0.726241 35.404255ZM0.726241 12.164539 1023.273759 12.164539 0.726241 12.164539ZM0.726241-11.075177 1023.273759-11.075177 0.726241-11.075177ZM0.726241-34.314894 1023.273759-34.314894 0.726241-34.314894ZM0.726241-57.55461 1023.273759-57.55461 0.726241-57.55461ZM0.726241-80.794326 1023.273759-80.794326 0.726241-80.794326ZM0.726241-104.034043 1023.273759-104.034043 0.726241-104.034043ZM512-127.273759c0 0-325.356028 371.835461-325.356028 697.191489s325.356028 325.356028 325.356028 325.356028 325.356028 0 325.356028-325.356028-325.356028-697.191489-325.356028-697.191489zM740.028096 613.143603c-10.69027 56.797867-42.342763 105.601271-86.219348 139.670695-2.974684 2.370451-5.670491 5.019779-8.784613 7.250791-6.878956 4.88034-14.501583 8.738133-21.984772 12.828323-6.274723 3.485957-12.177611 7.297271-18.82417 10.225475-6.507121 2.835245-13.525515 4.508505-20.357991 6.739518-7.947983 2.602848-15.52413 5.71697-23.936908 7.436709-15.477651 3.207081-31.420096 5.019779-47.827336 5.019779 0 0-0.046479 0-0.092959 0-0.092959 0-0.139438 0-0.232397 0-16.174843 0-31.93137-1.719739-47.176624-4.833861-30.444028-6.135285-57.680976-18.219938-81.571404-34.348301-0.371835-0.232397-0.743671-0.371835-1.069027-0.604233-9.900119-6.739518-18.777691-14.501583-27.422865-22.635484-2.602848-2.41693-5.484573-4.462026-7.947983-6.971915-5.809929-5.995847-10.69027-12.642406-15.849487-19.149526-4.415546-5.624011-9.202928-10.969146-13.153679-17.011472-2.649328-4.229628-4.647943-8.784613-7.111353-13.153679-4.92682-8.784613-9.946599-17.522746-13.757912-26.958071-1.440862-3.532437-2.138054-7.297271-3.392999-10.922667-3.532437-10.225475-7.111353-20.45095-9.202928-31.327138-2.928204-14.594542-4.508505-29.51444-4.508505-44.480817 0-232.397163 232.397163-557.753191 232.397163-557.753191s232.397163 325.356028 232.397163 557.753191c0 14.455104-1.487342 28.956687-4.369067 43.225872zM372.561702 569.91773c0 77.01642 62.421878 139.438298 139.438298 139.438298s139.438298-62.421878 139.438298-139.438298-62.421878-139.438298-139.438298-139.438298-139.438298 62.421878-139.438298 139.438298z"  horiz-adv-x="1024" />

    
    <glyph glyph-name="checkbox" unicode="&#58908;" d="M946-112 78-112C43.76-112 16-84.24 16-50L16 818C16 852.24 43.76 880 78 880l868 0C980.24 880 1008 852.24 1008 818l0-868C1008-84.24 980.24-112 946-112zM946 787.008c0 17.12-13.872 30.992-30.992 30.992L109.008 818c-17.12 0-31.008-13.872-31.008-30.992l0-806c0-17.12 13.888-31.008 31.008-31.008l806 0c17.12 0 30.992 13.888 30.992 31.008L946 787.008z"  horiz-adv-x="1024" />

    
    <glyph glyph-name="sanjiao2" unicode="&#58898;" d="M951.1626 76.587562 72.8374 76.587562 511.999488 691.413462Z"  horiz-adv-x="1024" />

    
    <glyph glyph-name="sanjiao1" unicode="&#58899;" d="M511.999488 76.586538 72.8374 691.413462 951.1626 691.413462Z"  horiz-adv-x="1024" />

    
    <glyph glyph-name="closezhuanhuan" unicode="&#58918;" d="M866.535642 747.30249c-198.218825 198.254442-519.575341 198.272251-717.874305 0-198.174304-198.201017-198.254442-519.646575 0-717.901018 198.218825-198.227729 519.726714-198.201017 717.874305 0C1064.834606 227.673723 1064.790084 549.083665 866.535642 747.30249zM798.212878 198.797049 697.140065 97.653001 510.487938 284.314033 323.880332 97.653001 222.762997 198.797049l186.661032 186.634319L222.762997 572.038974l101.117334 101.072813L510.487938 486.521989l186.652128 186.589797 101.072813-101.072813L611.605272 385.431368 798.212878 198.797049z"  horiz-adv-x="1024" />

    
    <glyph glyph-name="info" unicode="&#58906;" d="M512-62.016C266.08-62.016 65.984 138.048 65.984 384 65.984 629.92 266.08 830.016 512 830.016c245.952 0 446.016-200.064 446.016-446.016C958.016 138.048 757.952-62.016 512-62.016zM512 766.016C301.344 766.016 129.984 594.656 129.984 384c0-210.624 171.36-382.016 382.016-382.016 210.624 0 382.016 171.36 382.016 382.016C894.016 594.656 722.624 766.016 512 766.016zM512 592m-48 0a1.5 1.5 0 1 0 96 0 1.5 1.5 0 1 0-96 0ZM512 128c-17.664 0-32 14.304-32 32l0 288c0 17.664 14.336 32 32 32s32-14.336 32-32l0-288C544 142.304 529.664 128 512 128z"  horiz-adv-x="1024" />

    
    <glyph glyph-name="cb-checked" unicode="&#58909;" d="M939.319652-105.94393 62.624278-105.94393c-34.584487 0-62.624278 28.030887-62.624278 62.624278L0 833.375722C0 867.969113 28.030887 896 62.624278 896l876.704278 0c34.584487 0 62.615374-28.030887 62.615374-62.624278l0-876.704278C1001.935026-77.913043 973.913043-105.94393 939.319652-105.94393zM814.08 708.13607 438.352139 269.78393l-250.479304 187.86393-62.624278-125.239652 313.103583-250.488209 438.352139 500.967513L814.08 708.13607z"  horiz-adv-x="1024" />

    
    <glyph glyph-name="edit" unicode="&#58910;" d="M224 307.2 640 716.8l179.2-179.2L403.2 128 224 307.2zM659.2 620.8 640 640 307.2 307.2l19.2-19.2L659.2 620.8zM697.6 582.4l-19.2 19.2L345.6 268.8l19.2-19.2L697.6 582.4zM736 544l-19.2 19.2L384 230.4l19.2-19.2L736 544zM716.8 800c19.2 19.2 57.6 19.2 76.8 0L896 697.6c19.2-19.2 19.2-57.6 0-76.8L832 563.2l-172.8 172.8L716.8 800zM211.2 281.6l166.4-166.4L230.4 64l-70.4 70.4L211.2 281.6zM204.8 51.2l-83.2-32 32 83.2L204.8 51.2z"  horiz-adv-x="1024" />

    
    <glyph glyph-name="up" unicode="&#58901;" d="M527.133 558.641c5.18 0 10.359-1.955 14.34-5.862l292.96-287.687c8.065-7.92 8.183-20.878 0.264-28.942-7.921-8.064-20.879-8.182-28.942-0.263L527.134 509.49 248.513 235.887c-8.063-7.919-21.022-7.802-28.941 0.263s-7.802 21.022 0.264 28.942l292.958 287.686C516.774 556.686 521.954 558.641 527.133 558.641z"  horiz-adv-x="1024" />

    
    <glyph glyph-name="down" unicode="&#58902;" d="M527.135 230.024c-5.18 0-10.359 1.955-14.34 5.862l-292.96 287.687c-8.065 7.92-8.183 20.878-0.263 28.942 7.92 8.064 20.878 8.182 28.942 0.263l278.62-273.604 278.621 273.604c8.063 7.919 21.022 7.802 28.941-0.263s7.802-21.022-0.264-28.942L541.475 235.887C537.493 231.979 532.313 230.024 527.135 230.024z"  horiz-adv-x="1024" />

    
    <glyph glyph-name="info1" unicode="&#58911;" d="M512 896C230.4 896 0 665.6 0 384 0 102.4 230.4-128 512-128 793.6-128 1024 102.4 1024 384 1024 665.6 793.6 896 512 896L512 896ZM563.2 128 460.8 128 460.8 435.2 563.2 435.2 563.2 128 563.2 128ZM563.2 537.6 460.8 537.6 460.8 640 563.2 640 563.2 537.6 563.2 537.6Z"  horiz-adv-x="1024" />

    
    <glyph glyph-name="more2" unicode="&#58905;" d="M125.517715 308.512748c40.887222 0 71.554686 33.024138 71.554686 74.700329 0 43.249013-30.667463 76.275197-71.554686 76.275197-40.889269 0-72.343655-33.026184-72.343655-76.275197C53.17406 341.536886 84.627423 308.512748 125.517715 308.512748zM512.39295 308.512748c40.889269 0 71.556733 33.024138 71.556733 74.700329 0 43.249013-30.667463 76.275197-71.556733 76.275197s-72.343655-33.026184-72.343655-76.275197C440.049295 341.536886 471.503681 308.512748 512.39295 308.512748zM899.268184 308.512748c40.889269 0 71.556733 33.024138 71.556733 74.700329 0 43.249013-30.667463 76.275197-71.556733 76.275197s-72.340585-33.026184-72.340585-76.275197C826.927599 341.536886 858.378915 308.512748 899.268184 308.512748z"  horiz-adv-x="1024" />

    
    <glyph glyph-name="yoho-share" unicode="&#58880;" d="M797.922077-64.427666C797.922077-124.922712 836.558885-143.695623 884.182689-106.387207L1420.925535 314.0963C1468.565954 351.417728 1468.549339 412.225989 1420.925535 449.886003L884.182689 874.33218C836.54227 912.005331 797.922077 893.516035 797.922077 832.643182L797.922077 595.2C-59.844156 595.2 22.164502-104.727259 22.164502-104.727259 199.48053 128.000015 332.467532 197.818181 797.922077 197.818181L797.922077-64.427666Z"  horiz-adv-x="1463" />

    
    <glyph glyph-name="yoho-good" unicode="&#58881;" d="M281.309268 468.329405C261.944518 456.011531 249.081083 435.425978 249.081083 417.262053 249.081083 417.262053 249.081083 415.534775 249.081083 410.352944L249.081083 391.027456 249.081083 391.027456 249.081083-72.784309 250.462397-72.784309 250.462397-72.784309C256.860161-104.288175 284.722135-127.999994 318.076245-127.999994L899.653482-127.999994C937.758459-127.999994 968.648647-97.364619 968.648647-58.980386 968.648647-20.861911 937.729726 10.03922 899.653482 10.03922L685.069986 10.03922 941.456448 10.03922C987.043991 10.03922 1023.999997 47.213654 1023.999997 92.862749 1023.999997 138.604922 986.82815 175.686278 941.456448 175.686278L705.971467 175.686278 941.456448 175.686278C987.043991 175.686278 1023.999997 212.860712 1023.999997 258.509806 1023.999997 304.25198 986.82815 341.333335 941.456448 341.333335L681.831893 341.333335 893.1773 341.333335C934.858973 341.333335 968.648647 375.455398 968.648647 416.815107L968.648647 403.890781C968.648647 445.578212 934.694901 480.816175 893.059202 482.46883 893.059202 482.46883 767.960825 488.17176 634.260588 490.977692 646.953664 538.305457 671.572925 652.970618 650.378378 769.254903 622.702703 921.098032 456.64865 893.490195 456.64865 769.2549 442.810811 658.823527 456.64865 658.82353 428.972972 589.803923 407.321531 535.807984 328.844084 491.950239 295.705199 475.415392 291.13051 473.770131 286.772717 471.66182 282.688783 469.186168 281.441707 468.619923 280.774196 468.329405 280.774196 468.329405L281.309268 468.329405ZM60.235351 451.764708C26.968287 451.764708 3.0e-06 425.031092 3.0e-06 391.592267L3.0e-06-12.611865C3.0e-06-45.844189 26.937292-72.784309 60.235351-72.784309L193.729731-72.784309 193.729731 451.764708 60.235351 451.764708Z"  horiz-adv-x="1024" />

    
    <glyph glyph-name="yoho-view" unicode="&#58882;" d="M642.509803 567.794872C642.509803 477.210256 570.548706 403.692309 481.882351 403.692309 481.882351 313.107691 553.843452 239.589743 642.509803 239.589743 731.176158 239.589743 803.137254 313.107691 803.137254 403.692309 803.137254 494.276923 731.176158 567.794872 642.509803 567.794872L642.509803 567.794872ZM642.509803 896C313.062902 896 0 514.625641 0 403.692309 0 292.758976 313.062902-88.615386 642.509803-88.615386 971.956706-88.615386 1285.01961 292.758976 1285.01961 403.692309 1285.01961 514.625641 971.956706 896 642.509803 896L642.509803 896ZM642.509803 75.487181C465.096785 75.487181 321.254902 222.441024 321.254902 403.692309 321.254902 584.94359 465.096785 731.897436 642.509803 731.897436 819.922825 731.897436 963.764706 584.94359 963.764706 403.692309 963.764706 222.441024 819.922825 75.487181 642.509803 75.487181L642.509803 75.487181Z"  horiz-adv-x="1323" />

    
    <glyph glyph-name="yoho-time" unicode="&#58883;" d="M512 382.375002 512 725.333333 597.333333 725.333333 597.333333 298.666667 515.541666 298.666667 515.541666 297.041668 259.541667 297.041668 259.541667 382.375002 512 382.375002ZM512-128C794.769792-128 1024 101.230208 1024 384 1024 666.769792 794.769792 896 512 896 229.230208 896 0 666.769792 0 384 0 101.230208 229.230208-128 512-128Z"  horiz-adv-x="1024" />

    
    <glyph glyph-name="yoho-enter" unicode="&#58884;" d="M773.85252 419.915452C791.606485 396.661234 789.917642 363.355105 768.444059 341.881521 767.995498 341.432962 767.541556 340.993062 767.082439 340.561818L339.625247-86.895374C316.44487-110.07575 278.967852-110.181553 255.555939-86.76964 232.306121-63.519823 232.320649-25.809893 255.430209-2.700332L642.130542 384 255.430209 770.700333C232.249829 793.880712 232.144029 831.357729 255.555939 854.769641 278.80576 878.019459 316.51569 878.004932 339.625247 854.895373L767.070915 427.449706C767.533748 427.014748 767.991531 426.571005 768.444059 426.118479 770.413833 424.148705 772.216619 422.075139 773.85252 419.915452Z"  horiz-adv-x="1024" />

    
    <glyph glyph-name="yoho-like" unicode="&#58885;" d="M707.312 843.558c-74.962 0-143.435-28.951-195.312-76.506-51.872 47.554-120.35 76.506-195.312 76.506-161.541 0-292.966-134.448-292.966-299.713 0-70.651 24.589-139.322 69.239-193.353 0.682-0.821 1.366-1.619 2.071-2.414l344.451-390.644c18.513-20.996 44.879-32.988 72.521-32.988s54.004 11.988 72.521 32.988l344.451 390.644c0.704 0.801 1.386 1.599 2.071 2.414 44.644 54.028 69.239 122.703 69.239 193.353 0 165.262-131.426 299.713-292.966 299.713z"  horiz-adv-x="1024" />

    
    <glyph glyph-name="enter" unicode="&#58887;" d="M546.587 286.095l-0.415-0.401 44.523-46.104 247.816 239.314-44.524 46.104-201.295-194.387-194.821 201.743-46.104-44.523 194.82-201.743z"  horiz-adv-x="1643" />

    
    <glyph glyph-name="up1" unicode="&#58888;" d="M930.25 230.898l0 0c-18.573-17.814-48.653-17.814-67.227 0l-251.664 241.674c-18.573 17.814-18.573 46.717 0 64.529 18.498 17.814 48.616 17.814 67.19 0l251.702-241.674c18.535-17.814 18.535-46.718 0-64.529zM359.621 230.898l0 0c-18.535 17.814-18.535 46.717 0 64.529l251.739 241.674c18.498 17.814 48.616 17.814 67.19 0 18.535-17.814 18.535-46.718 0-64.529l-251.701-241.674c-18.573-17.814-48.653-17.814-67.227 0z"  horiz-adv-x="1821" />

    
    <glyph glyph-name="downn" unicode="&#58889;" d="M930.25 472.573l-251.701-241.674c-18.573-17.814-48.693-17.814-67.19 0-18.573 17.814-18.573 46.718 0 64.529l251.664 241.674c18.573 17.814 48.653 17.814 67.227 0 18.535-17.814 18.535-46.717 0-64.529zM426.847 537.102l251.701-241.674c18.535-17.814 18.535-46.717 0-64.529-18.573-17.814-48.693-17.814-67.189 0l-251.739 241.674c-18.535 17.814-18.535 46.718 0 64.529 18.573 17.814 48.654 17.814 67.227 0z"  horiz-adv-x="1821" />

    
    <glyph glyph-name="gou" unicode="&#58890;" d="M1024 300C1024 17.248 794.752-212 512-212 229.248-212 0 17.248 0 300 0 582.752 229.248 812 512 812 794.752 812 1024 582.752 1024 300M801.472 509.92 435.904 144.352 280.256 300 243.392 263.136 436.288 70.24 838.72 472.672 801.472 509.92"  horiz-adv-x="1024" />

    
    <glyph glyph-name="zidongdenglu" unicode="&#58952;" d="M512 882.432C237.184 882.432 13.568 658.88 13.568 384c0-274.88 223.616-498.432 498.432-498.432 274.816 0 498.432 223.616 498.432 498.432C1010.432 658.88 786.816 882.432 512 882.432zM512-82.304c-257.152 0-466.304 209.152-466.304 466.304 0 257.088 209.152 466.304 466.304 466.304 257.152 0 466.304-209.152 466.304-466.304C978.304 126.912 769.152-82.304 512-82.304zM419.84 216.832 264.384 372.288 241.664 349.568l178.176-178.176 361.088 361.088-22.72 22.72L419.84 216.832z"  horiz-adv-x="1024" />

    
    <glyph glyph-name="qianjin" unicode="&#58900;" d="M312.820622 34.6112 662.209422 384 312.820622 733.3888c-8.897422 8.897422-8.897422 23.278933 0 32.176356 8.874667 8.897422 23.278933 8.897422 32.176356 0l344.814933-344.792178c30.424178-27.170133 20.024889-18.295467 21.549511-19.820089 4.664889-4.664889 6.735644-10.8544 6.508089-16.952889 0.227556-6.121244-1.8432-12.288-6.508089-16.952889-1.524622-1.524622-46.603378-45.6704-48.378311-46.671644L344.996978 2.412089c-8.897422-8.897422-23.301689-8.897422-32.176356 0C303.9232 11.309511 303.9232 25.713778 312.820622 34.6112z"  horiz-adv-x="1024" />

    
    <glyph glyph-name="back" unicode="&#58896;" d="M244.782723 384 235.62063 393.162093 707.844986 865.386448 788.379372 784.852062 387.527308 384 788.379372-16.852061 707.844986-97.386447 235.62063 374.837907 244.782723 384Z"  horiz-adv-x="1024" />

    
    <glyph glyph-name="search" unicode="&#58895;" d="M682.212342 158.111687C614.345529 102.574459 527.592673 69.25403 433.057413 69.25403 215.629231 69.25403 39.368856 245.514404 39.368856 462.942587 39.368856 680.370769 215.629231 856.631144 433.057413 856.631144 650.485596 856.631144 826.74597 680.370769 826.74597 462.942587 826.74597 368.407327 793.425541 281.654471 737.888313 213.787658L1023.999984-72.324013 968.324013-127.999984 682.212342 158.111687ZM433.057413 147.991741C606.999962 147.991741 748.008259 289.000038 748.008259 462.942587 748.008259 636.885136 606.999962 777.893433 433.057413 777.893433 259.114864 777.893433 118.106567 636.885136 118.106567 462.942587 118.106567 289.000038 259.114864 147.991741 433.057413 147.991741Z"  horiz-adv-x="1024" />

    
    <glyph glyph-name="rmb" unicode="&#58949;" d="M512 893.725c-281.076 0-509.725-228.647-509.725-509.725s228.647-509.725 509.725-509.725 509.725 228.647 509.725 509.725-228.647 509.725-509.725 509.725zM512-52.907c-240.917 0-436.907 195.989-436.907 436.907s195.989 436.907 436.907 436.907c240.917 0 436.907-195.989 436.907-436.907 0-240.917-195.989-436.907-436.907-436.907zM658.874 384c20.134 0 36.409 16.311 36.409 36.409s-16.275 36.409-36.409 36.409l-110.465 0 0 17.221 134.931 140.939c13.872 14.563 13.653 37.611-0.91 51.483-14.491 13.836-37.356 13.326-51.3-1.275l-115.598-121.497-122.406 122.151c-14.272 14.236-37.283 14.163-51.483-0.073s-14.892-37.283-0.655-51.483l134.604-134.967 0-22.5-107.843 0c-20.098 0-36.409-16.311-36.409-36.409s16.311-36.409 36.409-36.409l107.843 0 0-72.818-107.843 0c-20.098 0-36.409-16.275-36.409-36.409s16.311-36.409 36.409-36.409l107.843 0 0-108.243c0-20.134 16.311-36.409 36.409-36.409s36.409 16.275 36.409 36.409l0 108.243 110.465 0c20.134 0 36.409 16.275 36.409 36.409s-16.275 36.409-36.409 36.409l-110.465 0 0 72.818 110.465 0z"  horiz-adv-x="1024" />

    
    <glyph glyph-name="gou1" unicode="&#58903;" d="M-194.99 258.375l0 0zM519.913 866.053c-266.654 0-482.01-215.721-482.01-482.053 0-266.321 215.353-482.053 482.01-482.053 266.654 0 482.052 215.735 482.052 482.053 0 266.335-215.399 482.053-482.052 482.053zM857.006 581.479l-338.852-451.708-327.844 238.719c-15.811 11.51-19.307 33.673-7.783 49.483 11.476 15.83 33.655 19.293 49.483 7.786l271.372-197.602 296.953 395.844c11.693 15.644 33.901 18.849 49.59 7.066 15.648-11.737 18.822-33.929 7.084-49.589z"  horiz-adv-x="1030" />

    
    <glyph glyph-name="del" unicode="&#58913;" d="M160.000064 575.999872l0-640.000256c0-35.199687 28.79993-63.999616 63.999616-63.999616l575.999616 0c35.199687 0 63.999616 28.79993 63.999616 63.999616L863.998913 575.999872 160.000064 575.999872zM351.999936 0.000256l-63.999616 0L288.00032 448.00064l63.999616 0L351.999936 0.000256zM480.000192 0.000256l-63.999616 0L416.000576 448.00064l63.999616 0L480.000192 0.000256zM607.999424 0.000256l-63.999616 0L543.999808 448.00064l63.999616 0L607.999424 0.000256zM735.99968 0.000256l-63.999616 0L672.000064 448.00064l63.999616 0L735.99968 0.000256zM879.999328 767.999744 672.000064 767.999744 672.000064 847.999776c0 26.367531-21.63167 48.000224-48.000224 48.000224L400.00016 896c-26.367531 0-48.000224-21.63167-48.000224-48.000224l0-80.000032L143.999648 767.999744c-26.431999 0-48.000224-21.568225-48.000224-48.000224l0-80.000032L927.999552 639.999488l0 80.000032C927.999552 746.432543 906.367883 767.999744 879.999328 767.999744zM607.999424 767.999744 415.999552 767.999744 415.999552 831.168436l191.999872 0L607.999424 767.999744z"  horiz-adv-x="1024" />

    
    <glyph glyph-name="heart" unicode="&#58914;" d="M586.100134 672.312203C434.077359 1027.519263 2.858912 944.199088 0.008485 531.983488-1.52636 306.141962 205.385406 221.36003 343.448397 130.731068 476.468325 43.025621 571.482559-76.838489 586.831013-128 599.255951-78.300247 705.233366 45.218258 828.824958 132.923705 964.695313 229.399696 1173.726628 308.334598 1172.264871 534.907003 1169.414444 947.853482 730.887209 1012.901688 586.100134 672.312203Z"  horiz-adv-x="1173" />

    
    <glyph glyph-name="home" unicode="&#58897;" d="M508.895 876.203c-2.801-1.2-112.831-111.631-245.266-245.665-234.462-237.664-240.465-244.066-240.465-259.27 0-23.206 14.404-34.81 42.013-33.209 4.801 0 92.426 85.622 233.264 227.262l224.86 227.262 225.262-227.262c139.239-140.437 228.062-227.262 232.863-227.262 27.207-1.6 42.013 10.002 42.013 33.209 0 15.204-5.601 21.206-238.864 258.069-131.635 132.835-242.066 243.665-246.066 245.665-6.802 3.601-22.005 4.402-29.607 1.2zM170.804 341.26c-15.204-11.603-15.604-17.204-15.604-226.862s0.4-215.258 15.604-226.862c9.203-7.202 695.788-7.202 704.99 0 15.204 11.603 15.604 17.204 15.604 226.862 0 209.658-0.4 215.258-15.604 226.862-10.802 8.403-31.609 6.002-42.412-4.801l-10.002-9.604 0-380.502-600.162 0 0 380.502-10.002 9.604c-10.802 10.802-31.609 13.203-42.412 4.801zM397.665 298.047l-10.403-12.403 0-214.459 10.403-12.403c8.002-10.002 13.604-12.403 25.607-12.403s17.605 2.401 25.607 12.403l10.403 12.403 0 175.247 128.035 0 0-175.247 10.403-12.403c14.803-17.605 36.41-17.605 51.213 0l10.403 12.403 0 214.459-20.805 24.809-230.462 0-10.403-12.403z"  horiz-adv-x="1024" />

    
    <glyph glyph-name="duigou" unicode="&#58950;" d="M707.791938 552.979514 451.398043 286.364091 315.72384 427.447481C300.172622 443.61871 274.959434 443.618084 259.408818 427.447481 243.858204 411.276252 243.8576 385.057842 259.408818 368.88724L423.235102 198.529374C423.236912 198.527491 428.336384 193.864028 431.164262 192.127387 446.434927 182.746505 466.434608 184.878409 479.556157 198.5231 479.559777 198.527491 764.107563 494.4199 764.107563 494.4199 779.658177 510.589874 779.657574 536.808912 764.106958 552.979514 764.106958 552.979514 723.343157 569.150116 707.791938 552.979514ZM512 384m-495.483871 0a30 30 0 1 0 990.967742 0 30 30 0 1 0-990.967742 0Z"  horiz-adv-x="1024" />

    
    <glyph glyph-name="icon1" unicode="&#58891;" d="M1280 320 64 320C28.64 320 0 348.64 0 384 0 419.36 28.64 448 64 448L1280 448C1315.36 448 1344 419.36 1344 384 1344 348.64 1315.36 320 1280 320M1280-128 64-128C28.64-128 0-99.36 0-64 0-28.64 28.64 0 64 0L1280 0C1315.328 0 1344-28.64 1344-64 1344-99.36 1315.328-128 1280-128M1280 768 64 768C28.64 768 0 796.64 0 832 0 867.328 28.64 896 64 896L1280 896C1315.36 896 1344 867.328 1344 832 1344 796.64 1315.36 768 1280 768"  horiz-adv-x="1344" />

    
    <glyph glyph-name="point1" unicode="&#58892;" d="M1024 384C1024 101.229714 794.843429-128 512-128 229.229714-128 0 101.229714 0 384 0 666.770286 229.229714 896 512 896 794.843429 896 1024 666.770286 1024 384"  horiz-adv-x="1024" />

    
    <glyph glyph-name="logo2" unicode="&#58893;" d="M1229.442169 7.185356 1518.001898-128 1576.057492-4.078644 1295.429424 127.392542C1280.572746 90.042576 1253.566915 42.92122 1229.442169 7.185356M944.197424 558.583322 944.197424 424.751729 1081.031593 424.751729 1081.031593 683.09478C1122.373424 729.226847 1141.29139 761.074983 1142.801356 763.643661L1024.815729 832.98061C1024.225627 831.973966 963.098034 731.743458 809.931932 631.33939L884.944271 516.894373C906.187932 530.813831 925.869559 544.768 944.197424 558.583322M1524.423593 103.33722 1524.423593 406.892475 919.326373 406.892475 919.326373 103.33722 1056.160542 103.33722 1056.160542 270.058305 1387.589424 270.058305 1387.589424 103.33722 1524.423593 103.33722M1283.037288 252.528814 1146.203119 252.528814 1146.203119 186.558915C1146.203119 81.45139 967.870915 30.199322 855.612746 8.348203L929.739932-115.62522C1102.327322-74.821424 1283.037288 10.049085 1283.037288 186.558915L1283.037288 252.528814M1087.626847 653.797966 1118.989017 520.591186C1148.494102 527.533559 1176.680136 534.805695 1203.651254 542.25139 1216.650847 509.986712 1236.384542 483.79661 1262.991186 464.097627 1300.549424 436.345492 1343.939254 427.910508 1382.799186 427.910508 1421.468203 427.927864 1455.642034 436.276068 1474.993898 442.194441 1531.365966 459.446237 1577.532746 492.839051 1608.287458 520.139932L1540.616678 645.345627C1525.499661 628.197966 1482.561085 587.619797 1434.936407 573.040814 1396.64922 561.325559 1361.104271 561.759458 1344.373153 574.116881 1341.179661 576.494644 1338.558915 579.705492 1336.181153 583.21139 1475.636068 631.25261 1560.211525 676.690441 1576.248407 685.594034L1494.762305 797.22739C1467.964746 783.481492 1408.572746 754.878915 1321.966644 723.395254L1321.966644 808.040136 1185.115119 808.040136 1185.115119 679.224407C1154.429831 670.477017 1122.043661 661.903186 1087.626847 653.797966M755.312814 561.308203 755.312814 698.142373 406.61478 698.142373C414.355525 725.755661 420.933424 753.716068 426.313763 781.954169L291.857356 807.519458C284.810847 770.429831 275.334508 733.895593 263.601898 698.142373L64.477288 698.142373 64.477288 561.308203 205.667797 561.308203C154.172746 463.281898 84.52339 374.662508 0 301.298983L89.695458 197.961763C119.72122 224.013017 147.994034 251.851932 174.652746 281.061966L174.652746-108.353085 311.504271-108.353085 311.504271 56.944814 572.242441 56.944814 572.242441 32.941559 448.251661 32.941559 496.449085-103.89261 579.271593-103.89261C650.847458-103.89261 709.07661-45.663458 709.07661 25.912407L709.07661 515.887729 335.924068 515.887729C343.404475 530.848542 350.537763 546.000271 357.28922 561.308203L755.312814 561.308203 755.312814 561.308203ZM311.504271 217.990508 572.242441 217.990508 572.242441 193.778983 311.504271 193.778983 311.504271 217.990508ZM311.504271 379.053559 572.242441 379.053559 572.242441 354.824678 311.504271 354.824678 311.504271 379.053559ZM1683.108881 815.867661C1683.108881 771.835661 1648.518508 736.898169 1604.625356 736.898169 1560.680136 736.898169 1525.655864 771.835661 1525.655864 815.867661 1525.655864 859.882305 1560.680136 894.333831 1605.093966 894.333831 1648.518508 894.333831 1683.108881 859.882305 1683.108881 815.867661L1683.108881 815.867661ZM1545.285424 815.867661C1545.285424 780.930169 1570.989559 753.160678 1605.093966 753.160678 1638.261153 752.692068 1663.479322 780.930169 1663.479322 815.381695 1663.479322 850.319186 1638.261153 878.539932 1604.122034 878.539932 1570.989559 878.539932 1545.285424 850.319186 1545.285424 815.867661L1545.285424 815.867661ZM1592.476203 775.185356 1574.703729 775.185356 1574.703729 853.668881C1581.715525 854.623458 1591.521627 856.046644 1604.122034 856.046644 1618.631593 856.046644 1625.157424 853.668881 1630.312136 849.83322 1634.980881 846.500881 1638.261153 840.756068 1638.261153 833.102102 1638.261153 823.538983 1631.266712 817.290847 1622.363119 814.427119L1622.363119 813.455186C1629.843525 811.077424 1633.575051 804.846644 1635.918102 794.311593 1638.261153 782.370712 1640.100881 778.066441 1641.541424 775.185356L1622.831729 775.185356C1620.506034 778.066441 1619.082847 784.748475 1616.774508 794.311593 1615.351322 802.468881 1610.682576 806.287186 1600.859119 806.287186L1592.476203 806.287186 1592.476203 775.185356 1592.476203 775.185356ZM1592.944814 819.2 1601.362441 819.2C1611.151186 819.2 1619.082847 822.567051 1619.082847 830.689627 1619.082847 837.857627 1613.962847 842.66522 1602.733559 842.66522 1598.064814 842.66522 1594.784542 842.19661 1592.944814 841.710644L1592.944814 819.2 1592.944814 819.2Z"  horiz-adv-x="1685" />

    
    <glyph glyph-name="logo1" unicode="&#58894;" d="M611.293288 722.683661 434.054508 722.683661 283.630644 501.187254 189.249085 722.683661 10.673898 722.683661 179.061153 327.575864 178.852881 326.10061 148.046102 82.596881 303.728814 82.596881 333.546305 313.691119 611.293288 722.683661M698.558915 565.022373C566.219932 565.022373 444.485424 453.840271 427.216271 317.179661 418.642441 249.508881 436.727322 186.402712 478.103864 139.454915 517.172068 95.127864 572.763119 70.725424 634.671729 70.725424 767.028068 70.725424 888.762576 181.890169 906.031729 318.55078 914.588203 386.221559 896.503322 449.327729 855.12678 496.275525 816.058576 540.602576 760.450169 565.022373 698.558915 565.022373L698.558915 565.022373ZM759.443525 317.179661C752.466441 262.074576 705.414508 217.226847 654.578983 217.226847 631.200542 217.226847 609.974237 226.703186 594.822508 243.902915 577.883119 263.098576 570.211797 290.295322 573.787119 318.55078 580.764203 373.655864 627.816136 418.503593 678.651661 418.503593 702.047458 418.503593 723.256407 409.027254 738.408136 391.827525 755.347525 372.631864 763.018847 345.435119 759.443525 317.179661L759.443525 317.179661ZM1655.634441 565.022373C1523.295458 565.022373 1401.560949 453.840271 1384.274441 317.179661 1375.735322 249.526237 1393.802847 186.402712 1435.196746 139.454915 1474.264949 95.127864 1529.873356 70.725424 1591.747254 70.725424 1724.103593 70.725424 1845.838102 181.890169 1863.12461 318.55078 1871.681085 386.204203 1853.596203 449.327729 1812.219661 496.292881 1773.151458 540.602576 1717.543051 565.022373 1655.634441 565.022373L1655.634441 565.022373ZM1716.519051 317.179661C1709.541966 262.074576 1662.50739 217.226847 1611.654508 217.226847 1588.276068 217.226847 1567.067119 226.703186 1551.880678 243.902915 1534.958644 263.098576 1527.304678 290.312678 1530.88 318.55078 1537.857085 373.655864 1584.909017 418.503593 1635.744542 418.503593 1659.122983 418.503593 1680.349288 409.027254 1695.518373 391.827525 1712.440407 372.631864 1720.094373 345.435119 1716.519051 317.179661L1716.519051 317.179661ZM1332.189288 502.436881C1303.933831 534.493288 1263.251525 552.161627 1217.62278 552.161627 1184.611797 552.161627 1151.184271 542.650576 1120.950237 524.669831L1111.387119 518.994441 1137.160678 722.683661 981.495322 722.683661 900.529898 82.596881 1056.195254 82.596881 1092.677424 370.896271C1096.738712 403.022102 1126.174373 429.14278 1158.300203 429.14278 1174.094102 429.14278 1188.204475 422.981424 1198.08 411.786847 1208.059661 400.488136 1212.416 385.475254 1210.420068 369.542508L1174.111458 82.596881 1329.776814 82.596881 1367.473898 380.563525C1373.305492 426.712949 1360.791864 469.998644 1332.189288 502.436881M2948.512542 544.368814 2912.047729 256.069424C2907.986441 223.960949 2878.55078 197.822915 2846.424949 197.822915 2830.631051 197.822915 2816.503322 203.984271 2806.627797 215.178847 2796.665492 226.494915 2792.291797 241.490441 2794.305085 257.423186L2830.596339 544.368814 2674.930983 544.368814 2637.233898 246.419525C2631.402305 200.252746 2643.933288 156.967051 2672.518508 124.528814 2700.773966 92.472407 2741.456271 74.821424 2787.067661 74.821424 2820.096 74.821424 2853.523525 84.315119 2883.757559 102.295864L2893.320678 107.971254 2890.092475 82.596881 3045.775186 82.596881 3104.177898 544.368814 2948.512542 544.368814M1950.910915 722.683661 1896.309153 291.006915 2051.991864 291.006915 2106.593627 722.683661 1950.910915 722.683661M1969.863593 251.713085C1920.208271 251.713085 1874.701017 211.291119 1868.435525 161.635797 1865.415593 137.736678 1871.872 115.347525 1886.641898 98.581695 1901.238237 82.024136 1922.273627 72.912271 1945.895051 72.912271 1995.533017 72.912271 2041.040271 113.316881 2047.305763 162.989559 2050.343051 186.888678 2043.869288 209.277831 2029.116746 226.026305 2014.520407 242.60122 1993.467661 251.713085 1969.863593 251.713085M2608.110644 262.404339C2616.615051 329.606508 2587.127322 390.421695 2531.154441 421.141695L2522.597966 425.845153 2531.119729 430.618034C2582.753627 459.637153 2617.795254 510.212339 2624.841763 565.907525 2629.961763 606.416271 2619.461424 644.807593 2595.267254 674.000271 2571.524339 702.672271 2536.812475 719.802576 2497.518644 722.197695L2491.721763 722.544814 2491.756475 722.683661 2177.96122 722.683661 2096.995797 82.614237 2413.724203 83.013424C2510.500881 87.248271 2595.92678 166.044203 2608.110644 262.404339L2608.110644 262.404339ZM2450.98739 284.446373C2446.370712 247.912136 2412.873763 218.181424 2376.287458 218.181424L2269.826169 218.181424 2286.730847 351.908881 2393.591322 351.908881C2411.224949 351.405559 2426.827932 344.185492 2437.605966 331.602441 2448.47078 318.897898 2453.226305 302.149424 2450.98739 284.446373L2450.98739 284.446373ZM2483.356203 531.456C2479.086644 497.802847 2448.227797 470.432542 2414.557288 470.432542L2301.726373 470.432542 2317.329356 593.83322 2428.806508 593.83322C2445.329356 593.83322 2460.11661 587.376814 2470.44339 575.661559 2480.874305 563.824814 2485.456271 548.117695 2483.356203 531.456L2483.356203 531.456ZM3131.617627-126.993356C3218.90061-126.993356 3304.482712-72.131254 3344.574915 9.511051L3608.818983 544.368814 3453.275119 544.368814 3325.622237 285.991051 3263.349153 544.368814 3106.850712 544.368814 3220.462644 73.103186 3213.39878 58.801898C3201.857085 35.28461 3177.124881 19.473356 3151.906712 19.473356 3144.999051 19.473356 3138.334373 20.653559 3132.086237 22.961898L3102.72 33.861424 3036.107932-104.621559 3064.536949-115.173966C3085.676475-123.018847 3108.239186-126.993356 3131.617627-126.993356M3942.972746 730.268203C3942.972746 642.881085 3874.364746 573.561492 3787.255322 573.561492 3700.093831 573.561492 3630.565966 642.881085 3630.565966 730.268203 3630.565966 817.603254 3700.093831 885.968271 3788.192542 885.968271 3874.364746 885.968271 3942.972746 817.603254 3942.972746 730.268203L3942.972746 730.268203ZM3669.512678 730.268203C3669.512678 660.94861 3720.539119 605.843525 3788.192542 605.843525 3853.988881 604.923661 3904.04339 660.94861 3904.04339 729.296271 3904.04339 798.615864 3853.988881 854.606102 3786.28339 854.606102 3720.539119 854.606102 3669.512678 798.615864 3669.512678 730.268203L3669.512678 730.268203ZM3763.165288 649.545763 3727.91539 649.545763 3727.91539 805.280542C3741.817492 807.154983 3761.256136 810.001356 3786.28339 810.001356 3815.042169 810.001356 3827.989695 805.280542 3838.229695 797.661288 3847.497763 791.031322 3853.988881 779.645831 3853.988881 764.442034 3853.988881 745.472 3840.138847 733.09722 3822.453153 727.387119L3822.453153 725.495322C3837.309831 720.757153 3844.703458 708.417085 3849.354847 687.520542 3853.988881 663.794983 3857.668339 655.255864 3860.497356 649.545763L3823.390373 649.545763C3818.791051 655.255864 3815.962034 668.515797 3811.362712 687.520542 3808.533695 703.678915 3799.300339 711.263458 3779.792271 711.263458L3763.165288 711.263458 3763.165288 649.545763 3763.165288 649.545763ZM3764.102508 736.880814 3780.781559 736.880814C3800.220203 736.880814 3815.962034 743.545492 3815.962034 759.686508 3815.962034 773.901017 3805.791458 783.44678 3783.523797 783.44678 3774.273085 783.44678 3767.76461 782.492203 3764.102508 781.537627L3764.102508 736.880814 3764.102508 736.880814Z"  horiz-adv-x="3958" />

    
    <glyph glyph-name="gift" unicode="&#58912;" d="M937.928692 371.512594l-29.562293 0L538.337855 371.512594 538.337855 646.231423l-49.948599 0 0-274.718829L93.386924 371.512594l-4.587482 0c-41.380456 0-74.92341 33.542954-74.92341 74.92341L13.876032 621.256612c0 41.380456 33.542954 74.92341 74.92341 74.92341l90.100064 0c-21.253046 24.749684-40.151465 57.920154-40.151465 99.897198 0 96.892771 99.897198 99.897198 99.897198 99.897198 151.320381 0 238.064001-99.248422 276.16476-157.818375C554.429345 798.930197 640.755456 895.975441 788.081872 895.975441c0 0 99.897198-3.091408 99.897198-102.84432 0-39.856753-16.060791-72.128761-35.214013-96.951099l85.162612 0c41.380456 0 74.92341-33.542954 74.92341-74.92341l0-174.820608C1012.852102 405.056572 979.309148 371.512594 937.928692 371.512594zM263.62005 821.052031c-53.637618 0-49.948599-24.974811-49.948599-24.974811 0-38.643112 32.091906-73.486688 66.554812-99.897198l172.547845 0C394.863163 821.185061 314.088488 821.052031 263.62005 821.052031zM763.108085 818.841689c-49.66412 0-128.651079-0.029676-186.342012-122.661667L753.832837 696.180022c31.54239 26.390044 59.223846 60.008722 59.223846 96.951099C813.056684 793.131121 816.745702 818.841689 763.108085 818.841689zM488.389256-127.975441 138.748041-127.975441c-41.380456 0-74.92341 33.542954-74.92341 74.92341L63.824631 321.563996l424.564625 0L488.389256-127.975441zM538.337855 321.563996l399.590837 0 0-374.616026c0-41.380456-33.542954-74.92341-74.92341-74.92341L538.337855-127.975441 538.337855 321.563996z"  horiz-adv-x="1024" />

    
    <glyph glyph-name="phone" unicode="&#58942;" d="M520.533333 401.066667M768-93.866667c-59.733333 0-128 17.066667-204.8 55.466667-93.866667 46.933333-187.733333 115.2-277.333333 204.8-85.333333 85.333333-157.866667 183.466667-204.8 277.333333-72.533333 149.333333-76.8 273.066667-4.266667 341.333333 17.066667 17.066667 42.666667 17.066667 59.733333 0s17.066667-42.666667 0-59.733333c-42.666667-42.666667-34.133333-136.533333 21.333333-247.466667 42.666667-85.333333 106.666667-174.933333 187.733333-256s170.666667-145.066667 256-187.733333c110.933333-55.466667 204.8-64 247.466667-21.333333 17.066667 17.066667 42.666667 17.066667 59.733333 0 17.066667-17.066667 17.066667-42.666667 0-59.733333C874.666667-76.8 827.733333-93.866667 768-93.866667zM332.8 439.466667c-17.066667 0-29.866667 8.533333-38.4 25.6C281.6 486.4 290.133333 512 311.466667 520.533333l98.133333 46.933333c17.066667 8.533333 38.4 29.866667 34.133333 55.466667 0 12.8-8.533333 21.333333-17.066667 29.866667L285.866667 797.866667C273.066667 810.666667 251.733333 814.933333 230.4 810.666667 221.866667 806.4 213.333333 802.133333 204.8 797.866667L136.533333 725.333333c-17.066667-17.066667-42.666667-17.066667-59.733333 0s-17.066667 42.666667 0 59.733333l68.266667 68.266667c17.066667 17.066667 38.4 29.866667 59.733333 34.133333 51.2 12.8 102.4 0 140.8-34.133333l140.8-140.8c21.333333-21.333333 34.133333-51.2 38.4-81.066667 8.533333-55.466667-25.6-115.2-81.066667-145.066667l-98.133333-46.933333C345.6 443.733333 337.066667 439.466667 332.8 439.466667zM874.666667-55.466667c-12.8 0-21.333333 4.266667-29.866667 12.8-17.066667 17.066667-17.066667 42.666667 0 59.733333l68.266667 68.266667c8.533333 8.533333 12.8 12.8 12.8 25.6 4.266667 21.333333 0 42.666667-12.8 55.466667l-140.8 140.8c-8.533333 8.533333-21.333333 12.8-29.866667 17.066667-25.6 4.266667-46.933333-12.8-55.466667-34.133333L640 192c-8.533333-21.333333-34.133333-29.866667-55.466667-17.066667-21.333333 8.533333-29.866667 34.133333-17.066667 55.466667l46.933333 98.133333c29.866667 55.466667 85.333333 89.6 145.066667 81.066667 29.866667-4.266667 55.466667-17.066667 76.8-38.4l140.8-140.8c38.4-38.4 51.2-89.6 34.133333-140.8-8.533333-21.333333-17.066667-42.666667-34.133333-59.733333L904.533333-42.666667C896-51.2 887.466667-55.466667 874.666667-55.466667zM601.6 170.666667c-8.533333 0-17.066667 4.266667-25.6 8.533333-51.2 38.4-102.4 81.066667-153.6 128-51.2 51.2-93.866667 102.4-128 153.6C281.6 477.866667 285.866667 503.466667 307.2 520.533333c21.333333 12.8 46.933333 8.533333 59.733333-8.533333 34.133333-46.933333 72.533333-98.133333 119.466667-140.8s93.866667-85.333333 140.8-119.466667c21.333333-12.8 25.6-38.4 8.533333-59.733333C631.466667 174.933333 618.666667 170.666667 601.6 170.666667z"  horiz-adv-x="1024" />

    
    <glyph glyph-name="comment" unicode="&#58943;" d="M512.000049 18.285714C479.25643 18.285714 445.513191 13.165714 414.476239 18.285714L192.000049-128C192.000049-128 192.000049 98.57219 197.388239 114.541714 80.822906 197.802667 0.073191 315.952762 4.9e-05 457.142857-0.121856 704.560762 229.229763 896 512.000049 896 794.745953 896 1024.000049 704.560762 1024.000049 457.142857 1024.000049 209.700571 794.745953 18.285714 512.000049 18.285714L512.000049 18.285714ZM512.000049 847.238095C264.582144 847.238095 48.761953 669.208381 48.761953 457.142857 48.761953 327.021714 128.317001 209.627429 243.809572 140.190476L243.809572-30.47619 390.095287 67.047619C424.789382 59.66019 474.624049 64 512.000049 64 759.442334 64 975.238144 245.052952 975.238144 457.142857 975.238144 669.208381 759.442334 847.238095 512.000049 847.238095L512.000049 847.238095ZM768.000049 384C732.647668 384 704.000049 412.647619 704.000049 448 704.000049 483.352381 732.647668 512 768.000049 512 803.35243 512 832.000049 483.352381 832.000049 448 832.000049 412.647619 803.35243 384 768.000049 384L768.000049 384ZM512.000049 384C476.647668 384 448.000049 412.647619 448.000049 448 448.000049 483.352381 476.647668 512 512.000049 512 547.328049 512 576.000049 483.352381 576.000049 448 576.000049 412.647619 547.328049 384 512.000049 384L512.000049 384ZM256.000049 384C220.647668 384 192.000049 412.647619 192.000049 448 192.000049 483.352381 220.647668 512 256.000049 512 291.35243 512 320.000049 483.352381 320.000049 448 320.000049 412.647619 291.35243 384 256.000049 384L256.000049 384Z"  horiz-adv-x="1025" />

    
    <glyph glyph-name="03tanhao" unicode="&#58920;" d="M505.173333 860.16c258.773333 0 469.333333-210.538667 469.333333-469.333333s-210.538667-469.333333-469.333333-469.333333-469.333333 210.56-469.333333 469.333333S246.4 860.16 505.173333 860.16L505.173333 860.16zM505.173333-19.84c226.432 0 410.666667 184.256 410.666667 410.666667S731.605333 801.493333 505.173333 801.493333c-226.453333 0-410.666667-184.234667-410.666667-410.666667C94.506667 164.373333 278.72-19.84 505.173333-19.84L505.173333-19.84zM528.042667 221.781333l0-58.410667-58.133333 0 0 58.410667L528.042667 221.781333zM469.909333 648.362667l58.133333 0 0-349.056-58.133333 0L469.909333 648.362667z"  horiz-adv-x="1024" />

    
    <glyph glyph-name="file" unicode="&#58930;" d="M313.031924 246.987486l397.074527 0L710.106452 315.751616 313.031924 315.751616 313.031924 246.987486zM313.031924 109.589187l397.074527 0 0 68.699662L313.031924 178.288848 313.031924 109.589187zM610.838587 831.160249 180.674431 831.160249c-18.290575 0-33.089629-15.380292-33.089629-34.316573l0-824.719304c0-19.000749 14.799054-34.383088 33.089629-34.383088l661.792585 0c18.289552 0 33.089629 15.381315 33.089629 34.383088L875.556645 590.615755 610.838587 831.160249zM643.928217 709.789994l131.130549-119.17424L643.928217 590.615755 643.928217 709.789994zM809.376363 6.506437 213.76406 6.506437 213.76406 762.460588l363.984898 0 0-206.163453c0-19.000749 14.800078-34.383088 33.089629-34.383088l198.538799 0L809.377386 6.506437zM313.031924 384.451278l397.074527 0 0 68.76413L313.031924 453.215408 313.031924 384.451278z"  horiz-adv-x="1024" />

    
    <glyph glyph-name="home1" unicode="&#58922;" d="M496.9216 890.4128 46.0544 503.9552C33.0752 492.8192 25.6 476.5888 25.6 459.488L25.6-41.0432C25.6-83.2832 60.16-117.8432 102.4-117.8432L358.4-117.8432 358.4 214.9568 665.6 214.9568 665.6-117.8432 921.6768-117.8432C964.0448-117.8432 998.4-83.488 998.4-41.12L998.4 459.488C998.4 476.5888 990.9248 492.8192 977.9456 503.9552L527.0784 890.4128C518.4 897.8624 505.6 897.8624 496.9216 890.4128"  horiz-adv-x="1024" />

    
    <glyph glyph-name="mine" unicode="&#58923;" d="M761.45639 622.891707C761.45639 484.676683 649.415805 372.611122 511.175805 372.611122 372.96078 372.611122 260.920195 484.676683 260.920195 622.891707 260.920195 761.106732 372.96078 873.172293 511.175805 873.172293 649.415805 873.172293 761.45639 761.106732 761.45639 622.891707M887.58322-80.421463C895.100878-65.386146 898.172878-48.52761 896.974049-31.744 882.663024 168.835122 715.401366 327.130537 511.175805 327.130537 306.97522 327.130537 139.713561 168.835122 125.402537-31.744 124.203707-48.52761 127.275707-65.386146 134.793366-80.421463 142.385951-95.581659 157.870829-105.147317 174.804293-105.147317L847.572293-105.147317C864.505756-105.147317 879.990634-95.581659 887.58322-80.421463"  horiz-adv-x="1024" />

    
    <glyph glyph-name="shoppingcard" unicode="&#58924;" d="M832-42.658909C832-89.786182 793.786182-128 746.658909-128 699.531636-128 661.317818-89.786182 661.317818-42.658909 661.317818 4.468364 699.531636 42.658909 746.658909 42.658909 793.786182 42.658909 832 4.468364 832-42.658909M533.317818-42.658909C533.317818-89.786182 495.127273-128 448-128 400.872727-128 362.658909-89.786182 362.658909-42.658909 362.658909 4.468364 400.872727 42.658909 448 42.658909 495.127273 42.658909 533.317818 4.468364 533.317818-42.658909M277.317818 704 242.082909 862.580364C237.754182 882.106182 220.439273 896 200.424727 896L53.317818 896C23.877818 896 0 872.122182 0 842.658909 0 813.218909 23.877818 789.341091 53.317818 789.341091L106.658909 789.341091 263.586909 161.605818C271.662545 129.326545 300.683636 106.658909 333.963636 106.658909L860.695273 106.658909C893.975273 106.658909 922.996364 129.326545 931.048727 161.605818L1044.130909 613.864727C1055.557818 659.665455 1020.951273 704 973.754182 704L277.317818 704"  horiz-adv-x="1048" />

    
    <glyph glyph-name="shopping" unicode="&#58925;" d="M442.1888 358.4 358.4 358.4 358.4 281.6 128 281.6 128 358.4 46.5408 358.4C20.8384 358.4 0 339.8912 0 314.1888L0-81.4592C0-107.1616 20.8384-128 46.5408-128L442.1888-128C467.8912-128 486.4-107.1616 486.4-81.4592L486.4 314.1888C486.4 339.8912 467.8912 358.4 442.1888 358.4M977.4592 896 896 896 896 819.2 665.6 819.2 665.6 896 581.8112 896C556.1088 896 537.6 875.1616 537.6 849.4592L537.6 453.8112C537.6 428.1088 556.1088 409.6 581.8112 409.6L977.4592 409.6C1003.1616 409.6 1024 428.1088 1024 453.8112L1024 849.4592C1024 875.1616 1003.1616 896 977.4592 896M977.4592 358.4 896 358.4 896 281.6 665.6 281.6 665.6 358.4 581.8112 358.4C556.1088 358.4 537.6 339.8912 537.6 314.1888L537.6-81.4592C537.6-107.1616 556.1088-128 581.8112-128L977.4592-128C1003.1616-128 1024-107.1616 1024-81.4592L1024 314.1888C1024 339.8912 1003.1616 358.4 977.4592 358.4"  horiz-adv-x="1024" />

    
    <glyph glyph-name="shopping1" unicode="&#58919;" d="M741.282909 341.625018C727.486836 347.508364 718.736291 361.360291 719.499636 376.068655 723.446691 452.663855 720.784291 513.396364 711.363491 561.747782 663.980218 804.975709 525.051345 873.192727 519.168 875.966836L512 879.355345 504.832 875.966836C498.948655 873.192727 360.019782 804.975709 312.636509 561.747782 303.215709 513.396364 300.553309 452.663855 304.518982 376.068655 305.263709 361.360291 296.513164 347.508364 282.717091 341.625018 227.514182 318.0544 134.907345 258.364509 134.907345 123.401309L134.907345 106.626327 332.893091 106.626327C332.911709 106.607709 332.911709 106.589091 332.911709 106.570473 335.276218 78.401164 359.330909 56.357236 387.649164 56.357236L636.350836 56.357236C664.687709 56.357236 688.723782 78.401164 691.088291 106.570473 691.088291 106.589091 691.088291 106.607709 691.106909 106.626327L889.092655 106.626327 889.092655 123.401309C889.092655 258.364509 796.485818 318.0544 741.282909 341.625018L741.282909 341.625018ZM512 525.628509C470.351127 525.628509 436.577745 559.383273 436.577745 601.050764 436.577745 642.699636 470.351127 676.4544 512 676.4544 553.648873 676.4544 587.422255 642.699636 587.422255 601.050764 587.422255 559.383273 553.648873 525.628509 512 525.628509L512 525.628509ZM453.334109 22.844509C434.827636 22.844509 419.821382 7.838255 419.821382-10.686836L419.821382-94.487273C419.821382-112.993745 434.827636-128 453.334109-128 471.8592-128 486.865455-112.993745 486.865455-94.487273L486.865455-10.686836C486.865455 7.838255 471.8592 22.844509 453.334109 22.844509M570.665891 22.844509C552.1408 22.844509 537.134545 7.838255 537.134545-10.686836L537.134545-94.487273C537.134545-112.993745 552.1408-128 570.665891-128 589.172364-128 604.178618-112.993745 604.178618-94.487273L604.178618-10.686836C604.178618 7.838255 589.172364 22.844509 570.665891 22.844509"  horiz-adv-x="1024" />

    
    <glyph glyph-name="importedlayers" unicode="&#58921;" d="M512.136533 893.240589C512.136533 893.240589 512.082639 893.09687 511.996407 892.89207 511.917361 893.09687 511.856281 893.240589 511.856281 893.240589 347.337207 893.240589 228.132828 811.352926 136.292604 747.926007L136.292604 297.53847C136.292604 19.035621 476.652239-113.193319 512-125.240589 547.351354-113.193319 887.718175 19.035621 887.718175 297.53847L887.718175 747.926007C795.877951 811.352926 676.662793 893.240589 512.136533 893.240589L512.136533 893.240589ZM807.738386 297.53847C807.738386 196.543326 759.581642 116.3264 659.344618 43.338554 601.652098 1.340182 542.910428-26.685081 511.989221-38.567074 481.078793-26.685081 422.340716 1.332996 364.644604 43.338554 264.407579 116.3264 216.243649 196.543326 216.243649 297.53847L216.243649 719.383354C314.224281 778.257965 380.992674 815.23694 511.989221 816.731621 642.996547 815.23694 709.754161 778.257965 807.738386 719.383354L807.738386 297.53847 807.738386 297.53847ZM511.852688 755.349109C419.275902 755.349109 374.528898 739.989109 280.173586 693.341418L280.173586 294.247298C280.173586 119.67506 495.213586 43.873909 511.992814 37.765839 528.772042 43.873909 743.812042 119.67506 743.812042 294.247298L743.812042 693.341418C649.471102 739.989109 604.727691 755.349109 512.13294 755.349109 512.13294 755.349109 512.089825 755.291621 511.992814 755.201796 511.906582 755.284435 511.852688 755.349109 511.852688 755.349109L511.852688 755.349109ZM666.810835 598.55854 666.810835 551.691677 561.791551 551.691677 561.791551 485.020295 654.023411 485.020295 654.023411 423.781502 561.791551 423.781502 561.791551 347.168337 678.168253 347.168337 678.168253 290.190821 345.828154 290.190821 345.828154 347.168337 388.347509 347.168337 388.347509 514.770189 452.431944 514.770189 452.431944 347.175523 497.710709 347.175523 497.710709 551.69527 360.027621 551.69527 360.027621 612.93047 666.810835 612.93047 666.810835 598.55854 666.810835 598.55854Z"  horiz-adv-x="1024" />

    
    <glyph glyph-name="huodaofukuan" unicode="&#58926;" d="M0.723729 867.102227 1045.620002 867.102227 1045.620002 241.911982 0.723729 241.911982 0.723729 867.102227 0.723729 867.102227ZM1423.75651 867.102227 1086.812262 867.102227 1086.812262 241.911982 1147.786458 209.043637C1169.425964 218.202887 1193.24872 223.295331 1218.277693 223.295331 1306.982786 223.295331 1380.586056 159.538377 1394.867651 75.864829L1402.153192 71.94114 1607.053025 71.94114 1607.053025 469.521684 1423.75651 867.102227 1423.75651 867.102227ZM1177.519671 494.769248 1177.519671 785.193741 1341.673544 785.193741 1462.632837 494.769248 1177.519671 494.769248 1177.519671 494.769248ZM234.910476 208.602371 0.036186 208.602371 0.036186 46.311943 110.561716 46.311943C113.299826 122.483971 164.660483 186.395965 234.910476 208.602371M451.800091 38.202191C451.800091 125.954468 379.861398 197.081754 291.12012 197.081754 202.378843 197.081754 130.428086 125.954468 130.428086 38.202191 130.428086-49.538161 202.378843-120.665446 291.12012-120.665446 379.861398-120.665446 451.800091-49.538161 451.800091 38.202191M1067.368069 208.602371 346.304481 208.602371C416.566535 186.395965 467.927194 122.483971 470.665305 46.311943L1041.30175 46.311943C1041.30175 80.02704 1050.830855 111.535807 1067.368069 138.357617L1067.368069 208.602371M1379.958825 39.907625C1379.958825 127.647973 1308.008069 198.775262 1219.266792 198.775262 1130.525515 198.775262 1058.586819 127.647973 1058.586819 39.907625 1058.586819-47.844652 1130.525515-118.971938 1219.266792-118.971938 1308.008069-118.971938 1379.958825-47.844652 1379.958825 39.907625"  horiz-adv-x="1639" />

    
    <glyph glyph-name="pay" unicode="&#58927;" d="M473.7024 111.9744 473.7024 272.9728 306.5856 272.9728 306.5856 322.6112 473.7024 322.6112 473.7024 396.5696 306.5856 396.5696 306.5856 446.208 440.6272 446.208 272.64 710.8096 359.68 710.8096 512 454.016 512 839.9104C341.0176 839.9104 211.5072 881.3568 211.5072 881.3568 206.336 725.9392 76.8 736.3072 76.8 736.3072 76.8 487.6288 118.2464 363.264 118.2464 363.264 190.7712 62.7712 512-113.3824 512-113.3824L512 111.9744 473.7024 111.9744M550.2976 111.9744 550.2976 272.9728 717.4144 272.9728 717.4144 322.6112 550.2976 322.6112 550.2976 396.5696 717.4144 396.5696 717.4144 446.208 583.3728 446.208 751.36 710.8096 664.32 710.8096 512 454.016 512 839.9104C682.9824 839.9104 812.4928 881.3568 812.4928 881.3568 817.664 725.9392 947.2 736.3072 947.2 736.3072 947.2 487.6288 905.7536 363.264 905.7536 363.264 833.2288 62.7712 512-113.3824 512-113.3824L512 111.9744 550.2976 111.9744"  horiz-adv-x="1024" />

    
    <glyph glyph-name="car" unicode="&#58931;" d="M1303.272727 537.739636 1141.992727 779.636364 837.818182 779.636364 837.818182 337.454545 1070.545455 337.454545C1096.238545 337.454545 1117.090909 358.283636 1117.090909 384 1117.090909 409.693091 1096.238545 430.545455 1070.545455 430.545455L930.909091 430.545455 930.909091 686.545455 1092.165818 686.545455 1210.181818 509.533091 1210.181818 267.636364 768 267.636364 768 845.428364C768 873.355636 745.355636 896 717.428364 896L50.594909 896C22.644364 896 0 873.355636 0 845.428364L0 225.117091C0 197.189818 22.644364 174.545455 50.594909 174.545455L193.210182 174.545455C174.126545 144.128 162.909091 108.288 162.909091 69.818182 162.909091-39.261091 251.648-128 360.727273-128 469.783273-128 558.545455-39.261091 558.545455 69.818182 558.545455 108.288 547.328 144.128 528.221091 174.545455L891.392 174.545455C872.308364 144.128 861.090909 108.288 861.090909 69.818182 861.090909-39.261091 949.829818-128 1058.909091-128 1167.965091-128 1256.727273-39.261091 1256.727273 69.818182 1256.727273 108.288 1245.509818 144.128 1226.402909 174.545455L1303.272727 174.545455 1303.272727 537.739636 1303.272727 537.739636ZM93.090909 802.909091 674.909091 802.909091 674.909091 267.636364 93.090909 267.636364 93.090909 802.909091ZM465.454545 69.818182C465.454545 12.078545 418.466909-34.909091 360.727273-34.909091 302.964364-34.909091 256 12.078545 256 69.818182 256 127.557818 302.964364 174.545455 360.727273 174.545455 418.466909 174.545455 465.454545 127.557818 465.454545 69.818182L465.454545 69.818182ZM1163.636364 69.818182C1163.636364 12.078545 1116.648727-34.909091 1058.909091-34.909091 1001.146182-34.909091 954.181818 12.078545 954.181818 69.818182 954.181818 127.557818 1001.146182 174.545455 1058.909091 174.545455 1116.648727 174.545455 1163.636364 127.557818 1163.636364 69.818182L1163.636364 69.818182Z"  horiz-adv-x="1304" />

    
    <glyph glyph-name="card" unicode="&#58932;" d="M1403.482353 896 72.282353 896C32.436706 896 0 863.563294 0 823.717647L0-55.717647C0-95.563294 32.436706-128 72.282353-128L1403.482353-128C1443.328-128 1475.764706-95.563294 1475.764706-55.717647L1475.764706 823.717647C1475.764706 863.563294 1443.328 896 1403.482353 896L1403.482353 896ZM120.470588 775.529412 1355.294118 775.529412 1355.294118 624.941176 120.470588 624.941176 120.470588 775.529412ZM120.470588 414.117647 1355.294118 414.117647 1355.294118-7.529412 120.470588-7.529412 120.470588 414.117647ZM210.823529 293.647059 783.058824 293.647059 783.058824 233.411765 210.823529 233.411765 210.823529 293.647059ZM210.823529 173.176471 542.117647 173.176471 542.117647 112.941176 210.823529 112.941176 210.823529 173.176471Z"  horiz-adv-x="1476" />

    
    <glyph glyph-name="dl" unicode="&#58933;" d="M512 881.467915C235.672511 881.467915 10.893617 656.689021 10.893617 380.361532 10.893617 104.034043 235.672511-120.744851 512-120.744851 788.305702-120.744851 1013.106383 104.034043 1013.106383 380.361532 1013.106383 656.689021 788.305702 881.467915 512 881.467915L512 881.467915ZM512-33.595915C283.735149-33.595915 98.042553 152.096681 98.042553 380.361532 98.042553 608.626383 283.735149 794.318979 512 794.318979 740.243064 794.318979 925.957447 608.626383 925.957447 380.361532 925.957447 152.096681 740.243064-33.595915 512-33.595915L512-33.595915ZM512 554.659404C545.813787 554.659404 573.309277 527.142128 573.309277 493.350128L660.458213 493.350128C660.458213 560.062638 616.230128 616.600511 555.574468 635.250383L555.574468 685.382809C555.574468 697.431149 545.813787 707.170043 533.787234 707.170043L490.212766 707.170043C478.186213 707.170043 468.425532 697.431149 468.425532 685.382809L468.425532 635.250383C407.748085 616.600511 363.52 560.062638 363.52 493.350128 363.52 445.548936 386.67983 380.056511 496.945021 339.466894 573.309277 311.383149 573.309277 279.421277 573.309277 267.394723 573.309277 233.580936 545.813787 206.06366 512 206.06366 478.186213 206.06366 450.690723 233.580936 450.690723 267.394723L363.52 267.394723C363.52 200.682213 407.748085 144.122553 468.425532 125.472681L468.425532 75.340255C468.425532 63.313702 478.186213 53.553021 490.212766 53.553021L533.787234 53.553021C545.813787 53.553021 555.574468 63.313702 555.574468 75.340255L555.574468 125.472681C616.230128 144.122553 660.458213 200.682213 660.458213 267.394723 660.458213 315.217702 637.32017 380.710128 527.054979 421.25617 450.690723 449.361702 450.690723 481.323574 450.690723 493.350128 450.690723 527.142128 478.186213 554.659404 512 554.659404"  horiz-adv-x="1024" />

    
    <glyph glyph-name="map" unicode="&#58935;" d="M512 655.796148C428.22163 655.796148 360.296296 587.889778 360.296296 504.092444 360.296296 420.314074 428.22163 352.388741 512 352.388741 595.77837 352.388741 663.703704 420.314074 663.703704 504.092444 663.703704 587.889778 595.77837 655.796148 512 655.796148M512 879.559111C304.96237 879.559111 136.533333 711.130074 136.533333 504.092444 136.533333 304.810667 472.291556-71.661037 486.58963-87.589926L512-115.90163 537.41037-87.589926C551.708444-71.661037 887.466667 304.810667 887.466667 504.092444 887.466667 711.130074 719.03763 879.559111 512 879.559111L512 879.559111ZM512-12.98963C407.286519 108.904296 204.8 371.920593 204.8 504.092444 204.8 673.488593 342.603852 811.292444 512 811.292444 681.396148 811.292444 819.2 673.488593 819.2 504.092444 819.2 372.015407 616.732444 108.942222 512-12.98963L512-12.98963Z"  horiz-adv-x="1024" />

    
    <glyph glyph-name="nav" unicode="&#58936;" d="M1272.832-3.847758 93.680485-3.847758C59.42303-3.847758 31.650909-31.650909 31.650909-65.908364 31.650909-100.196848 59.42303-127.96897 93.680485-127.96897L1272.832-127.96897C1307.120485-127.96897 1334.923636-100.196848 1334.923636-65.908364 1334.923636-31.650909 1307.120485-3.847758 1272.832-3.847758M841.014303 740.879515 1270.256485 740.879515C1305.972364 740.879515 1334.923636 768.651636 1334.923636 802.940121 1334.923636 837.197576 1305.972364 865.000727 1270.256485 865.000727L841.014303 865.000727C805.298424 865.000727 776.378182 837.197576 776.378182 802.940121 776.378182 768.651636 805.298424 740.879515 841.014303 740.879515M841.014303 314.150788 1270.256485 314.150788C1305.972364 314.150788 1334.923636 341.922909 1334.923636 376.211394 1334.923636 410.499879 1305.972364 438.272 1270.256485 438.272L841.014303 438.272C805.298424 438.272 776.378182 410.499879 776.378182 376.211394 776.378182 341.922909 805.298424 314.150788 841.014303 314.150788M84.619636 314.150788 519.043879 314.150788C553.332364 314.150788 581.135515 341.922909 581.135515 376.211394L581.135515 810.697697C581.135515 844.986182 553.332364 872.758303 519.043879 872.758303L84.619636 872.758303C50.362182 872.758303 22.55903 844.986182 22.55903 810.697697L22.55903 376.211394C22.55903 341.922909 50.362182 314.150788 84.619636 314.150788L84.619636 314.150788ZM146.680242 748.637091 456.983273 748.637091 456.983273 438.272 146.680242 438.272 146.680242 748.637091Z"  horiz-adv-x="1335" />

    
    <glyph glyph-name="qt" unicode="&#58937;" d="M507.468255 894.692766C231.140766 894.692766 6.361872 669.913872 6.361872 393.586383 6.361872 117.280681 231.140766-107.52 507.468255-107.52 783.773957-107.52 1008.574638 117.280681 1008.574638 393.586383 1008.574638 669.913872 783.773957 894.692766 507.468255 894.692766L507.468255 894.692766ZM507.468255-20.371064C279.203404-20.371064 93.510809 165.343319 93.510809 393.586383 93.510809 621.851234 279.203404 807.54383 507.468255 807.54383 735.733106 807.54383 921.425702 621.851234 921.425702 393.586383 921.425702 165.343319 735.733106-20.371064 507.468255-20.371064L507.468255-20.371064ZM506.291745 688.999489C505.507404 688.999489 504.723064 689.021277 503.938723 689.021277 460.691064 689.021277 420.036085 672.354043 389.207149 641.960851 357.833532 611.001191 340.556255 569.692596 340.556255 525.617021 340.556255 501.563915 360.05583 482.042553 384.130723 482.042553 408.18383 482.042553 427.705191 501.563915 427.705191 525.617021 427.705191 546.18417 435.766468 565.465872 450.407489 579.910809 465.070298 594.333957 484.548085 601.589106 505.093447 601.850553 545.247319 601.305872 579.649362 566.882043 580.21583 526.706383 580.651574 495.637787 562.459234 467.662979 533.917957 455.44034 489.254128 436.354723 460.386043 392.017702 460.386043 342.451745L460.386043 306.437447C460.386043 282.38434 479.885617 262.862979 503.960511 262.862979 528.013617 262.862979 547.534979 282.38434 547.534979 306.437447L547.534979 342.451745C547.534979 356.831319 555.835915 370.034383 568.167489 375.328681 629.36783 401.473362 668.301617 461.388255 667.364766 527.926468 666.122894 615.532936 593.876426 687.779404 506.291745 688.999489M503.960511 219.288511C473.87234 219.288511 449.492426 194.908596 449.492426 164.820426 449.492426 134.754043 473.87234 110.35234 503.960511 110.35234 534.048681 110.35234 558.428596 134.754043 558.428596 164.820426 558.428596 194.908596 534.048681 219.288511 503.960511 219.288511"  horiz-adv-x="1024" />

    
    <glyph glyph-name="save" unicode="&#58939;" d="M1148.878049 896 49.95122 896C22.353171 896 0 873.621854 0 846.04878L0 496.390244C0 468.792195 22.353171 446.439024 49.95122 446.439024L1148.878049 446.439024C1176.476098 446.439024 1198.829268 468.792195 1198.829268 496.390244L1198.829268 846.04878C1198.829268 873.621854 1176.476098 896 1148.878049 896L1148.878049 896ZM99.902439 796.097561 1098.926829 796.097561 1098.926829 546.341463 99.902439 546.341463 99.902439 796.097561ZM1024 396.487805C996.401951 396.487805 974.04878 374.109659 974.04878 346.536585L974.04878-28.097561 224.780488-28.097561 224.780488 346.536585C224.780488 374.109659 202.402341 396.487805 174.829268 396.487805 147.23122 396.487805 124.878049 374.109659 124.878049 346.536585L124.878049-78.04878C124.878049-105.646829 147.23122-128 174.829268-128L1024-128C1051.573073-128 1073.95122-105.646829 1073.95122-78.04878L1073.95122 346.536585C1073.95122 374.109659 1051.573073 396.487805 1024 396.487805M324.682927 396.487805C297.084878 396.487805 274.731707 374.109659 274.731707 346.536585L274.731707 146.731707C274.731707 119.133659 297.084878 96.780488 324.682927 96.780488L874.146341 96.780488C901.719415 96.780488 924.097561 119.133659 924.097561 146.731707L924.097561 346.536585C924.097561 374.109659 901.719415 396.487805 874.146341 396.487805 846.548293 396.487805 824.195122 374.109659 824.195122 346.536585L824.195122 196.682927 374.634146 196.682927 374.634146 346.536585C374.634146 374.109659 352.256 396.487805 324.682927 396.487805"  horiz-adv-x="1199" />

    
    <glyph glyph-name="say" unicode="&#58940;" d="M297.722047 521.216C270.09786 521.216 247.712744 498.830884 247.712744 471.206698 247.712744 443.582512 270.09786 421.173581 297.722047 421.173581 325.346233 421.173581 347.755163 443.582512 347.755163 471.206698 347.755163 498.830884 325.346233 521.216 297.722047 521.216M952.677209 29.076837C1011.712 86.635163 1047.813953 161.863442 1047.813953 244.354977 1047.813953 326.132093 1012.331163 400.812651 954.201302 458.180465 954.201302 458.180465 954.225116 458.180465 954.225116 458.156651 954.749023 465.824744 955.606326 473.421395 955.606326 481.208558 955.606326 706.036093 741.280744 888.974884 477.803163 888.974884 214.349395 888.974884 0 706.036093 0 481.208558 0 375.355535 47.770791 279.075721 125.570977 206.586047L48.794791 83.753674C38.816744 67.774512 40.412279 47.151628 52.795535 32.910884 61.106605 23.31386 72.989767 18.170047 85.158698 18.170047 91.01693 18.170047 96.946605 19.360744 102.566698 21.861209L282.624 101.899907C285.45786 103.162047 288.053581 104.733767 290.458791 106.472186 303.008744 101.876093 315.796837 97.661023 328.870698 93.96986 328.846884 94.017488 328.82307 94.065116 328.799256 94.08893 392.358698-10.597209 519.882419-82.396279 666.790698-82.396279 718.371721-82.396279 767.547535-73.466047 812.460651-57.46307 813.032186-57.748837 813.532279-58.153674 814.127628-58.415628L953.725023-120.450977C959.321302-122.951442 965.227163-124.14214 971.085395-124.14214 983.254326-124.14214 995.137488-118.974512 1003.496186-109.401302 1015.831814-95.160558 1017.427349-74.537674 1007.473116-58.558512L952.677209 29.076837 952.677209 29.076837ZM285.767442 244.354977C285.767442 232.495628 286.60093 220.802977 288.053581 209.253209 288.005953 209.610419 287.910698 209.943814 287.86307 210.301023 172.960744 264.287256 95.255814 365.377488 95.255814 481.208558 95.255814 653.526326 266.859163 793.71907 477.803163 793.71907 669.338791 793.71907 827.963535 678.030884 855.635349 527.764837L855.635349 527.741023C799.886884 555.174698 735.517767 571.082419 666.790698 571.082419 456.704 571.082419 285.767442 424.507535 285.767442 244.354977L285.767442 244.354977ZM381.023256 244.354977C381.023256 371.997767 509.213767 475.826605 666.790698 475.826605 824.367628 475.826605 952.55814 371.997767 952.55814 244.354977 952.55814 116.688372 824.367628 12.859535 666.790698 12.859535 509.213767 12.859535 381.023256 116.688372 381.023256 244.354977L381.023256 244.354977ZM527.217116 275.360744C505.808372 275.360744 488.448 258.000372 488.448 236.591628 488.448 215.182884 505.808372 197.846326 527.217116 197.846326 548.62586 197.846326 565.986233 215.182884 565.986233 236.591628 565.986233 258.000372 548.62586 275.360744 527.217116 275.360744M666.790698 275.360744C645.381953 275.360744 628.021581 258.000372 628.021581 236.591628 628.021581 215.182884 645.381953 197.846326 666.790698 197.846326 688.199442 197.846326 705.559814 215.182884 705.559814 236.591628 705.559814 258.000372 688.199442 275.360744 666.790698 275.360744M806.340465 275.360744C784.931721 275.360744 767.571349 258.000372 767.571349 236.591628 767.571349 215.182884 784.931721 197.846326 806.340465 197.846326 827.749209 197.846326 845.109581 215.182884 845.109581 236.591628 845.109581 258.000372 827.749209 275.360744 806.340465 275.360744"  horiz-adv-x="1048" />

    
    <glyph glyph-name="news" unicode="&#58934;" d="M946.699378 759.466667 54.6816 759.466667C24.530489 759.466667 0 734.936178 0 704.807822L0 63.101156C0 32.927289 24.530489 8.3968 54.6816 8.3968L946.699378 8.3968C976.850489 8.3968 1001.380978 32.927289 1001.380978 63.101156L1001.380978 704.807822C1001.380978 734.936178 976.850489 759.466667 946.699378 759.466667L946.699378 759.466667ZM835.970844 668.307911 500.690489 407.529244 165.410133 668.307911 835.970844 668.307911 835.970844 668.307911ZM91.158756 99.555556 91.158756 610.599822 467.035022 318.281956C476.956444 310.522311 488.834844 306.631111 500.713244 306.631111 512.546133 306.631111 524.401778 310.499556 534.254933 318.190933L910.222222 610.599822 910.222222 99.555556 91.158756 99.555556 91.158756 99.555556Z"  horiz-adv-x="1024" />

    
    <glyph glyph-name="quan" unicode="&#58938;" d="M964.21583 459.623489C991.62417 461.518979 1013.106383 484.352 1013.106383 511.651404L1013.106383 658.540936C1013.106383 687.365447 989.641532 710.808511 960.817021 710.808511L63.182979 710.808511C34.358468 710.808511 10.893617 687.365447 10.893617 658.540936L10.893617 511.651404C10.893617 484.352 32.37583 461.518979 59.78417 459.623489 99.306213 456.900085 130.265872 423.674553 130.265872 384 130.265872 344.347234 99.306213 311.121702 59.78417 308.398298 32.37583 306.502809 10.893617 283.648 10.893617 256.370383L10.893617 109.480851C10.893617 80.65634 34.358468 57.191489 63.182979 57.191489L960.817021 57.191489C989.641532 57.191489 1013.106383 80.65634 1013.106383 109.480851L1013.106383 256.370383C1013.106383 283.648 991.62417 306.502809 964.21583 308.398298 924.715574 311.121702 893.734128 344.347234 893.734128 384 893.734128 423.674553 924.715574 456.900085 964.21583 459.623489L964.21583 459.623489ZM925.957447 227.001191 925.957447 144.340426 98.042553 144.340426 98.042553 227.001191C167.064511 246.217532 217.414809 309.858043 217.414809 384 217.414809 458.141957 167.064511 521.804255 98.042553 541.020596L98.042553 623.659574 381.276596 623.659574 381.276596 558.297872 446.638298 558.297872 446.638298 623.659574 925.957447 623.659574 925.957447 541.020596C856.935489 521.804255 806.585191 458.141957 806.585191 384 806.585191 309.858043 856.935489 246.217532 925.957447 227.001191L925.957447 227.001191ZM381.276596 362.212766 446.638298 362.212766 446.638298 253.276596 381.276596 253.276596 381.276596 362.212766ZM381.276596 514.723404 446.638298 514.723404 446.638298 405.787234 381.276596 405.787234 381.276596 514.723404ZM381.276596 209.702128 446.638298 209.702128 446.638298 144.340426 381.276596 144.340426 381.276596 209.702128Z"  horiz-adv-x="1024" />

    
    <glyph glyph-name="comment1" unicode="&#58941;" d="M512 13.312C246.62016 13.312 30.72 197.05856 30.72 422.912 30.72 648.76544 246.62016 832.512 512 832.512 777.37984 832.512 993.28 648.76544 993.28 422.912 993.28 197.05856 777.37984 13.312 512 13.312L512 13.312ZM512 750.592C291.79904 750.592 112.64 603.58656 112.64 422.912 112.64 242.23744 291.79904 95.232 512 95.232 732.20096 95.232 911.36 242.23744 911.36 422.912 911.36 603.58656 732.20096 750.592 512 750.592L512 750.592ZM729.6 74.752 913.92-7.168 811.52 156.672M913.89952-44.032C908.86144-44.032 903.7824-43.008 898.94912-40.8576L714.62912 41.0624C696.0128 49.33632 687.63648 71.10656 695.9104 89.72288 704.18432 108.3392 725.89312 116.71552 744.57088 108.42112L818.81088 75.42784 780.26752 137.13408C769.45408 154.39872 774.71744 177.152 791.98208 187.92448 809.32864 198.73792 832 193.45408 842.77248 176.20992L945.17248 12.36992C953.7536-1.37216 952.38144-19.10784 941.75232-31.35488 934.58432-39.58784 924.3648-44.032 913.89952-44.032M378.88 412.672C378.88 384.38912 355.96288 361.472 327.68 361.472 299.4176 361.472 276.48 384.38912 276.48 412.672 276.48 440.95488 299.4176 463.872 327.68 463.872 355.96288 463.872 378.88 440.95488 378.88 412.672M563.2 412.672C563.2 384.38912 540.28288 361.472 512 361.472 483.7376 361.472 460.8 384.38912 460.8 412.672 460.8 440.95488 483.7376 463.872 512 463.872 540.28288 463.872 563.2 440.95488 563.2 412.672M747.52 412.672C747.52 384.38912 724.60288 361.472 696.32 361.472 668.0576 361.472 645.12 384.38912 645.12 412.672 645.12 440.95488 668.0576 463.872 696.32 463.872 724.60288 463.872 747.52 440.95488 747.52 412.672"  horiz-adv-x="1024" />

    
    <glyph glyph-name="importedlayers1" unicode="&#58945;" d="M522.3424 893.44C242.2784 893.44 14.4384 665.6 14.4384 385.536 14.4384 105.472 242.2784-122.368 522.3424-122.368 802.4064-122.368 1030.2464 105.472 1030.2464 385.536 1030.2464 665.6 802.4064 893.44 522.3424 893.44L522.3424 893.44ZM522.3424-48.64C282.9312-48.64 88.1664 146.14528 88.1664 385.536 88.1664 624.9472 282.9312 819.712 522.3424 819.712 761.73312 819.712 956.5184 624.9472 956.5184 385.536 956.5184 146.14528 761.73312-48.64 522.3424-48.64L522.3424-48.64ZM775.2704 267.73504 669.88032 328.58112 669.96224 328.66304C602.15296 355.7376 579.4816 316.7232 568.70912 303.616L563.44576 294.48192C542.33088 291.88096 520.2944 298.3936 504.07424 314.61376L453.46816 365.21984C437.248 381.44 430.75584 403.456 433.3568 424.59136L441.6512 429.38368C461.84448 452.93568 499.8144 459.89888 467.70176 531.27168L467.43552 531.02592 406.58944 636.416C391.7824 662.07744 358.95296 670.88384 333.27104 656.05632L271.29856 620.27776C257.1264 612.08576 239.14496 587.9808 239.14496 587.9808 221.02016 474.35776 273.01888 335.54432 385.20832 229.9904 482.85696 138.09664 602.97216 93.16352 706.53952 99.49184 706.53952 99.49184 742.72768 103.99744 759.13216 132.42368L794.91072 194.41664C809.73824 220.09856 800.95232 252.90752 775.2704 267.73504"  horiz-adv-x="1045" />

    
    <glyph glyph-name="aa" unicode="&#58946;" d="M439.296 324.013419 548.996129 324.013419 494.823226 471.568516 439.296 324.013419M501.000258 880.904258C227.328 880.904258 5.516387 659.059613 5.516387 385.420387 5.516387 111.781161 227.328-110.063484 501.000258-110.063484 774.639484-110.063484 996.484129 111.781161 996.484129 385.420387 996.484129 659.059613 774.639484 880.904258 501.000258 880.904258L501.000258 880.904258ZM656.284903 180.224 636.663742 170.776774C633.261419 169.125161 629.594839 168.332387 625.928258 168.332387 622.823226 168.332387 619.751226 168.893935 616.811355 170.050065 610.403097 172.593548 605.283097 177.713548 602.805677 184.121806L576.247742 252.63071 412.738065 252.63071 387.501419 184.485161C385.090065 177.944774 380.003097 172.725677 373.528774 170.116129 367.087484 167.506581 359.820387 167.704774 353.544258 170.776774L333.923097 180.224C322.361806 185.806452 316.944516 199.250581 321.469935 211.24129L471.931871 611.757419C475.565419 621.435871 484.781419 627.811097 495.120516 627.811097 505.426581 627.811097 514.642581 621.435871 518.309161 611.757419L668.705032 211.24129C673.230452 199.250581 667.813161 185.806452 656.284903 180.224L656.284903 180.224Z"  horiz-adv-x="1024" />

    
    <glyph glyph-name="askic1" unicode="&#58947;" d="M859.069935 896 264.026839 896C118.189419 896 0 777.414194 0 632.006194L0-128 200.208516 7.134968C277.239742 67.187613 499.249548 52.157935 541.696 52.157935L859.003871 52.157935C1004.84129 52.157935 1123.096774 170.380387 1123.096774 316.283871L1123.096774 631.907097C1123.096774 777.744516 1005.006452 896 859.069935 896L859.069935 896ZM477.316129 367.483871C421.491613 367.483871 376.237419 411.846194 376.237419 466.580645 376.237419 521.315097 421.491613 565.677419 477.316129 565.677419 533.140645 565.677419 578.394839 521.315097 578.394839 466.580645 578.394839 411.846194 533.140645 367.483871 477.316129 367.483871L477.316129 367.483871ZM847.938065 367.483871C792.113548 367.483871 746.859355 411.846194 746.859355 466.580645 746.859355 521.315097 792.113548 565.677419 847.938065 565.677419 903.762581 565.677419 949.016774 521.315097 949.016774 466.580645 949.016774 411.846194 903.762581 367.483871 847.938065 367.483871L847.938065 367.483871Z"  horiz-adv-x="1124" />

    
    <glyph glyph-name="qq" unicode="&#58948;" d="M522.999742 880.904258C249.360516 880.904258 27.515871 659.059613 27.515871 385.420387 27.515871 111.781161 249.360516-110.063484 522.999742-110.063484 796.672-110.063484 1018.483613 111.781161 1018.483613 385.420387 1018.483613 659.059613 796.672 880.904258 522.999742 880.904258L522.999742 880.904258ZM739.228903 223.727484C744.051613 218.871742 746.727226 212.232258 746.496 205.394581 746.264774 198.556903 743.192774 192.082581 738.072774 187.590194 731.301161 181.644387 727.304258 178.209032 723.307355 174.179097 718.682839 169.521548 712.340645 166.878968 705.767226 166.878968L705.734194 166.878968C699.160774 166.878968 692.884645 169.488516 688.227097 174.113032L654.369032 208.004129C616.183742 180.884645 570.434065 166.152258 523.297032 166.152258 398.236903 166.152258 296.497548 267.891613 296.497548 392.984774 296.497548 518.044903 398.236903 619.81729 523.297032 619.81729 648.357161 619.81729 750.129548 518.044903 750.129548 392.984774 750.129548 343.634581 734.274065 296.497548 705.172645 257.783742L739.228903 223.727484 739.228903 223.727484ZM592.433548 337.19329C602.211097 346.078968 617.17471 345.781677 626.588903 336.367484L653.939613 309.016774C670.059355 334.022194 678.779871 363.057548 678.779871 392.984774 678.779871 478.703484 609.015742 548.467613 523.297032 548.467613 437.54529 548.467613 367.814194 478.703484 367.814194 392.984774 367.814194 307.266065 437.54529 237.501935 523.297032 237.501935 552.068129 237.501935 579.220645 244.967226 603.069935 259.303226L575.554065 286.819097C570.731355 291.608774 568.121806 298.149161 568.286968 304.920774 568.452129 311.725419 571.392 318.133677 576.412903 322.692129L592.433548 337.19329"  horiz-adv-x="1024" />

    
    <glyph glyph-name="39" unicode="&#58951;" d="M512-92.096c-262.528 0-476.096 213.568-476.096 476.096S249.472 860.032 512 860.032c262.592 0 476.096-213.568 476.096-476.096S774.592-92.096 512-92.096zM512 828.032C267.136 828.032 67.904 628.864 67.904 384c0-244.864 199.232-444.096 444.096-444.096S956.096 139.136 956.096 384C956.096 628.864 756.864 828.032 512 828.032z"  horiz-adv-x="1024" />

    
    <glyph glyph-name="z" unicode="&#58953;" d="M874.662889 125.789356 512-37.963605 149.337111 125.789356 149.337111 736.001667C221.229696 757.740107 407.041093 810.667556 512 810.667556 616.958907 810.667556 802.770304 757.740107 874.662889 736.001667L874.662889 125.789356ZM930.448974 808.043583C919.355757 811.627546 656.851824 896 512 896 367.148176 896 104.644243 811.627546 93.551026 808.043583 75.951209 802.347642 64.004667 785.94248 64.004667 767.446672L64.004667 98.24831C64.004667 81.480485 73.839231 66.269976 89.113738 59.358048L494.44285-123.658712C500.010792-126.197352 506.026729-127.434673 512-127.434673 517.973271-127.434673 523.989208-126.197352 529.55715-123.658712L934.886262 59.358048C950.160769 66.269976 959.995333 81.480485 959.995333 98.24831L959.995333 767.446672C959.995333 785.94248 948.048791 802.347642 930.448974 808.043583L930.448974 808.043583ZM750.809246 551.826518 750.809246 635.004319 277.854172 635.004319 277.854172 551.826518 483.676028 551.826518 483.676028 253.781623 412.231439 253.781623 412.231439 490.515157 324.765684 490.515157 324.765684 253.781623 259.1877 253.781623 259.1877 170.049162 765.209096 170.049162 765.209096 253.781623 572.187106 253.781623 572.187106 372.692384 723.076201 372.692384 723.076201 455.870185 572.187106 455.870185 572.187106 551.826518 750.809246 551.826518Z"  horiz-adv-x="1024" />

    
    <glyph glyph-name="shijian1" unicode="&#58954;" d="M510.546905-61.234387c-246.313895 0-446.708971 200.385866-446.708971 446.708971 0 246.313895 200.395076 446.708971 446.708971 446.708971S957.255877 631.789503 957.255877 385.474584C957.255877 139.151479 756.8608-61.234387 510.546905-61.234387zM510.546905 793.339876c-224.90019 0-407.865291-182.965102-407.865291-407.865291S285.645692-22.389684 510.546905-22.389684 918.411173 160.574395 918.411173 385.474584 735.447095 793.339876 510.546905 793.339876zM491.124554 346.630904c-10.726296 0-19.422352 8.696056-19.422352 19.422352L471.702202 696.229141c0 10.726296 8.696056 19.422352 19.422352 19.422352 10.726296 0 19.422352-8.696056 19.422352-19.422352l0-330.176908C510.546905 355.32696 501.849826 346.630904 491.124554 346.630904zM763.034407 346.630904 491.124554 346.630904c-10.726296 0-19.422352 8.696056-19.422352 19.422352s8.696056 19.422352 19.422352 19.422352l271.909853 0c10.726296 0 19.422352-8.696056 19.422352-19.422352S773.760702 346.630904 763.034407 346.630904z"  horiz-adv-x="1024" />

    
    <glyph glyph-name="huo" unicode="&#58955;" d="M378.88-128c-71.68 0-174.08 71.68-218.453333 184.32-34.133333 92.16-37.546667 204.8-3.413333 300.373333 23.893333 71.68 71.68 133.12 116.053333 191.146667 17.066667 20.48 34.133333 44.373333 51.2 68.266667l10.24 13.653333c47.786667 68.266667 95.573333 139.946667 71.68 232.106667-3.413333 6.826667 0 17.066667 6.826667 23.893333 6.826667 6.826667 13.653333 6.826667 20.48 6.826667 133.12-44.373333 187.733333-187.733333 215.04-283.306667 17.066667 30.72 40.96 58.026667 58.026667 68.266667 6.826667 3.413333 17.066667 3.413333 23.893333 0 6.826667-3.413333 10.24-13.653333 10.24-20.48-3.413333-78.506667 17.066667-174.08 54.613333-252.586667 6.826667-10.24 10.24-23.893333 17.066667-34.133333 27.306667-47.786667 51.2-95.573333 54.613333-157.013333 6.826667-119.466667-51.2-276.48-194.56-327.68-10.24-3.413333-37.546667-10.24-61.44-10.24-51.2 0-58.026667 30.72-58.026667 40.96 0 27.306667 23.893333 40.96 37.546667 51.2l3.413333 3.413333c47.786667 34.133333 75.093333 109.226667 61.44 170.666667-3.413333 23.893333-13.653333 47.786667-27.306667 75.093333-10.24 27.306667-23.893333 54.613333-27.306667 85.333333 0-3.413333-3.413333-6.826667-3.413333-10.24-10.24-27.306667-17.066667-51.2-20.48-75.093333 0-17.066667 3.413333-51.2 6.826667-58.026667 10.24-6.826667 10.24-20.48 3.413333-30.72-6.826667-10.24-20.48-13.653333-30.72-6.826667 0 0 0 0 0 0l0 0 0 0c-47.786667 30.72-75.093333 75.093333-85.333333 119.466667C477.866667 274.773333 477.866667 298.666667 477.866667 319.146667c0 6.826667 0 13.653333 0 20.48 0 6.826667 0 17.066667 0 23.893333 0 37.546667 0 68.266667-10.24 92.16-6.826667-27.306667-17.066667-58.026667-27.306667-71.68-13.653333-23.893333-23.893333-40.96-37.546667-58.026667-10.24-10.24-17.066667-23.893333-27.306667-37.546667-27.306667-44.373333-88.746667-160.426667-23.893333-262.826667 20.48-34.133333 44.373333-51.2 61.44-64.853333 17.066667-13.653333 34.133333-27.306667 27.306667-47.786667C433.493333-110.933333 409.6-128 378.88-128L378.88-128z"  horiz-adv-x="1024" />

    
    <glyph glyph-name="shanchu" unicode="&#58956;" d="M911.36 725.333333l-242.346667 0L669.013333 848.213333c0 27.306667-20.48 47.786667-47.786667 47.786667L375.466667 896c-27.306667 0-47.786667-20.48-47.786667-47.786667L327.68 725.333333 81.92 725.333333C54.613333 725.333333 34.133333 704.853333 34.133333 677.546667s20.48-47.786667 47.786667-47.786667L375.466667 629.76l242.346667 0 293.546667 0c27.306667 0 47.786667 20.48 47.786667 47.786667S938.666667 725.333333 911.36 725.333333zM423.253333 725.333333 423.253333 797.013333l146.773333 0L570.026667 725.333333 423.253333 725.333333zM764.586667 578.56c-27.306667 0-47.786667-20.48-47.786667-47.786667l0-559.786667L276.48-29.013333 276.48 530.773333c0 27.306667-20.48 47.786667-47.786667 47.786667s-47.786667-20.48-47.786667-47.786667l0-610.986667c0-27.306667 20.48-47.786667 47.786667-47.786667l535.893333 0c27.306667 0 47.786667 20.48 47.786667 47.786667L812.373333 530.773333C815.786667 558.08 791.893333 578.56 764.586667 578.56zM447.146667 66.56 447.146667 455.68c0 27.306667-20.48 47.786667-47.786667 47.786667s-47.786667-20.48-47.786667-47.786667l0-389.12c0-27.306667 20.48-47.786667 47.786667-47.786667S447.146667 39.253333 447.146667 66.56zM645.12 66.56 645.12 455.68c0 27.306667-20.48 47.786667-47.786667 47.786667S546.133333 482.986667 546.133333 455.68l0-389.12c0-27.306667 20.48-47.786667 47.786667-47.786667S645.12 39.253333 645.12 66.56z"  horiz-adv-x="1024" />

    
    <glyph glyph-name="facebook" unicode="&#58958;" d="M435.959 524.089l0-96.095-76.888 0 0-115.239 76.888 0 0-268.953 115.26 0L551.219 312.755l115.281 0L666.5 427.994l-115.26 0 0 76.867c0 23.064 15.369 38.413 38.372 38.413l76.888 0 0 115.26-96.136 0C497.416 658.535 435.959 597.078 435.959 524.089L435.959 524.089zM512.032 861.888C248.096 861.888 34.144 648 34.144 384c0-263.936 213.952-477.888 477.888-477.888S989.856 120.128 989.856 384C989.856 648 775.968 861.888 512.032 861.888zM830.496 65.472c-41.344-41.344-89.472-73.856-143.104-96.512-55.488-23.488-114.432-35.392-175.296-35.392-60.8 0-119.808 11.904-175.36 35.392-53.632 22.656-101.824 55.104-143.168 96.512-41.344 41.344-73.856 89.6-96.512 143.232C73.504 264.128 61.6 323.2 61.6 384s11.904 119.744 35.392 175.296c22.656 53.632 55.168 101.76 96.512 143.168 41.344 41.344 89.536 73.856 143.168 96.512 55.552 23.424 114.56 35.392 175.36 35.392 60.864 0 119.808-11.968 175.296-35.392 53.632-22.656 101.76-55.168 143.104-96.512 41.344-41.408 73.856-89.536 96.64-143.168 23.424-55.488 35.392-114.432 35.392-175.296s-12.032-119.936-35.392-175.296C904.352 155.136 871.84 106.88 830.496 65.472z"  horiz-adv-x="1024" />

    
    <glyph glyph-name="laba" unicode="&#59001;" d="M443.079 741.034c-13.393 0-26.994-6.842-40.7-20.563l-131.508-134.897h-106.747c-43.256 0-73.455-33.333-73.455-81.066v-216.223c0-47.681 27.485-97.008 73.455-97.008h93.684l144.805-140.635c11.933-11.948 24.51-18.019 37.419-18.019 15.339 0 28.581 8.558 36.317 23.488 5.12 9.882 7.708 22.295 7.708 36.876l0 593.295c0 40.419-22.077 54.754-40.977 54.754zM431.605 95.68l-144.907 140.763c-4.891 4.747-11.448 7.406-18.261 7.406h-104.313c-10.015 0-21.001 23.257-21.001 44.434v216.224c0 13 3.638 28.492 21.001 28.492h117.785c7.065 0 13.829 2.851 18.746 7.922l130.95 134.32v-579.561zM616.081 716.992c-14.393 0.334-26.611-10.86-27.099-25.376-0.512-14.502 10.837-26.671 25.305-27.17 145.112-5.006 263.153-129.791 263.153-278.179 0-148.48-115.584-268.768-263.153-273.864-14.469-0.501-25.817-12.67-25.305-27.173 0.488-14.209 12.116-25.389 26.176-25.389h0.923c175.972 0 313.811 149.452 313.811 326.425 0 176.382-140.784 324.76-313.811 330.725zM720.087 388.411c0 89.322-68.278 164.346-155.434 170.8-14.393 1.346-26.994-9.795-28.069-24.275-1.075-14.477 9.782-27.078 24.23-28.145 59.902-4.44 106.822-56.435 106.822-118.38 0-61.929-46.921-113.911-106.822-118.352-14.448-1.070-25.305-13.668-24.23-28.148 1.025-13.826 12.525-24.351 26.123-24.351 0.64 0 1.306 0.029 1.946 0.076 87.156 6.457 155.434 81.471 155.434 170.774z"  horiz-adv-x="1024" />

    
    <glyph glyph-name="wenhao" unicode="&#59033;" d="M512 886.272c-277.504 0-502.272-224.768-502.272-502.272s224.768-502.272 502.272-502.272 502.272 224.768 502.272 502.272S789.504 886.272 512 886.272zM520.704-14.848c-45.568 0-82.432 36.864-82.432 82.432 0 45.568 36.864 82.432 82.432 82.432 45.568 0 82.432-36.864 82.432-82.432C603.648 22.528 566.272-14.848 520.704-14.848zM737.792 477.184c-11.264-23.552-33.28-50.688-67.072-83.456-37.376-35.84-52.736-52.736-59.392-60.928-7.68-9.728-13.824-20.992-17.408-34.816-4.096-14.336-6.144-35.328-5.632-61.44l0.512-30.72-141.824 0 0 30.208c0 37.376 3.072 67.072 9.216 90.112 6.656 24.064 16.384 45.568 29.696 63.488 12.288 16.896 32.768 39.936 62.464 71.168 33.792 34.816 47.104 51.712 51.712 59.904 3.072 5.12 8.192 16.896 8.192 44.544 0 18.944-6.656 35.328-20.48 50.688-13.312 14.336-33.28 20.992-60.928 20.992-81.408 0-92.672-58.368-92.672-115.712l0-30.208-142.336 0 1.024 30.72c1.536 48.128 7.168 84.48 17.92 111.104 10.752 27.136 28.672 51.712 52.224 73.216 23.04 20.992 49.664 36.352 77.824 46.08 28.16 9.728 57.856 14.336 88.576 14.336 62.976 0 116.736-18.944 159.744-56.832l0 0c43.52-38.912 66.048-90.624 66.048-154.112C755.2 527.872 749.568 501.248 737.792 477.184z"  horiz-adv-x="1024" />

    
    <glyph glyph-name="2" unicode="&#58957;" d="M561.511784 223.813189l109.097514 0 0-110.702703-109.097514 0 0 110.702703ZM888.942703 223.813189l109.097514 0 0-110.702703-109.097514 0 0 110.702703ZM561.594811 113.387243l109.097514 0 0-110.702703-109.097514 0 0 110.702703ZM437.524757 458.447568 0 458.447568 0 896l437.524757 0L437.524757 458.447568zM110.702703 569.15027l216.119351 0L326.822054 785.297297 110.702703 785.297297 110.702703 569.15027zM999.507027 458.087784 561.98227 458.087784 561.98227 895.612541l437.524757 0L999.507027 458.087784zM672.684973 568.790486l216.119351 0 0 216.147027-216.119351 0L672.684973 568.790486zM437.524757-105.776432 0-105.776432l0 437.552432 437.524757 0L437.524757-105.776432zM110.702703 4.92627l216.119351 0 0 216.147027L110.702703 221.073297 110.702703 4.92627zM561.207351 334.792649l221.405405 0 0-110.702703-221.405405 0 0 110.702703ZM888.942703 333.934703l109.097514 0 0-110.702703-109.097514 0 0 110.702703ZM779.540757 112.695351l109.097514 0 0-110.702703-109.097514 0 0 110.702703ZM562.065297 2.407784l217.945946 0 0-110.702703-217.945946 0 0 110.702703ZM888.942703 2.407784l109.097514 0 0-110.702703-109.097514 0 0 110.702703Z"  horiz-adv-x="1024" />

    
    </font>
</defs>
</svg>
